<?xml version="1.0" encoding="iso-8859-1"?>
<!-- Generator: Adobe Illustrator 19.1.0, SVG Export Plug-In . SVG Version: 6.00 Build 0)  -->
<svg xmlns="http://www.w3.org/2000/svg" xmlns:xlink="http://www.w3.org/1999/xlink" version="1.1" id="Capa_1" x="0px" y="0px" viewBox="0 0 197.3 197.3" style="enable-background:new 0 0 197.3 197.3;" xml:space="preserve" width="512px" height="512px">
<g>
	<path d="M186.15,9.3h-49V3.5c0-1.9-1.6-3.5-3.5-3.5s-3.5,1.6-3.5,3.5v5.8h-63V3.5c0-1.9-1.6-3.5-3.5-3.5s-3.5,1.6-3.5,3.5v5.8   h-48.6c-3,0-5.4,2.8-5.4,5.8V192c0,3,2.4,5.3,5.4,5.3h174.6c3,0,5-2.2,5-5.3V15.1C191.15,12.1,189.25,9.3,186.15,9.3z M60.15,16.3   v6.4c0,1.9,1.6,3.5,3.5,3.5s3.5-1.6,3.5-3.5v-6.4h63v6.4c0,1.9,1.6,3.5,3.5,3.5s3.5-1.6,3.5-3.5v-6.4h47v28h-171v-28H60.15z    M13.15,190.3v-139h171v139H13.15z" fill="#FFFFFF"/>
	<path d="M63.95,82.3h-32.4c-1.9,0-3.5,1.6-3.5,3.5s1.6,3.5,3.5,3.5h32.4c1.9,0,3.5-1.6,3.5-3.5S65.85,82.3,63.95,82.3z" fill="#FFFFFF"/>
	<path d="M115.05,82.3h-32.4c-1.9,0-3.5,1.6-3.5,3.5s1.6,3.5,3.5,3.5h32.4c1.9,0,3.5-1.6,3.5-3.5S116.95,82.3,115.05,82.3z" fill="#FFFFFF"/>
	<path d="M166.15,82.3h-32.4c-1.9,0-3.5,1.6-3.5,3.5s1.6,3.5,3.5,3.5h32.4c1.9,0,3.5-1.6,3.5-3.5S168.15,82.3,166.15,82.3z" fill="#FFFFFF"/>
	<path d="M63.95,115.3h-32.4c-1.9,0-3.5,1.6-3.5,3.5s1.6,3.5,3.5,3.5h32.4c1.9,0,3.5-1.6,3.5-3.5S65.85,115.3,63.95,115.3z" fill="#FFFFFF"/>
	<path d="M115.05,115.3h-32.4c-1.9,0-3.5,1.6-3.5,3.5s1.6,3.5,3.5,3.5h32.4c1.9,0,3.5-1.6,3.5-3.5S116.95,115.3,115.05,115.3z" fill="#FFFFFF"/>
	<path d="M166.15,115.3h-32.4c-1.9,0-3.5,1.6-3.5,3.5s1.6,3.5,3.5,3.5h32.4c1.9,0,3.5-1.6,3.5-3.5S168.15,115.3,166.15,115.3z" fill="#FFFFFF"/>
	<path d="M63.95,147.3h-32.4c-1.9,0-3.5,1.6-3.5,3.5s1.6,3.5,3.5,3.5h32.4c1.9,0,3.5-1.6,3.5-3.5S65.85,147.3,63.95,147.3z" fill="#FFFFFF"/>
	<path d="M115.05,147.3h-32.4c-1.9,0-3.5,1.6-3.5,3.5s1.6,3.5,3.5,3.5h32.4c1.9,0,3.5-1.6,3.5-3.5S116.95,147.3,115.05,147.3z" fill="#FFFFFF"/>
	<path d="M166.15,147.3h-32.4c-1.9,0-3.5,1.6-3.5,3.5s1.6,3.5,3.5,3.5h32.4c1.9,0,3.5-1.6,3.5-3.5S168.15,147.3,166.15,147.3z" fill="#FFFFFF"/>
</g>
<g>
</g>
<g>
</g>
<g>
</g>
<g>
</g>
<g>
</g>
<g>
</g>
<g>
</g>
<g>
</g>
<g>
</g>
<g>
</g>
<g>
</g>
<g>
</g>
<g>
</g>
<g>
</g>
<g>
</g>
</svg>
