<?xml version="1.0" encoding="iso-8859-1"?>
<!-- Generator: Adobe Illustrator 19.0.0, SVG Export Plug-In . SVG Version: 6.00 Build 0)  -->
<svg xmlns="http://www.w3.org/2000/svg" xmlns:xlink="http://www.w3.org/1999/xlink" version="1.1" id="Layer_1" x="0px" y="0px" viewBox="0 0 512 512" style="enable-background:new 0 0 512 512;" xml:space="preserve" width="512px" height="512px">
<g>
	<g>
		<path d="M370.4,262.3c-20.371,0-39.617,4.906-56.622,13.595c-12.341-8.807-27.182-40.065-32.284-81.58    c-3.101-25.234-8.036-105.778,45.049-155.323c0.234,3.121,0.578,6.485,1.073,10.043c2.625,18.891,9.883,45.539,29.551,65.209    c20.019,20.018,45.813,27.682,63.926,30.586c0.774,0.124,10.779,1.692,21.502,1.692c9.58,0,19.733-1.252,24.382-5.901    c9.854-9.855,4.445-44.417,4.21-45.884c-2.904-18.113-10.568-43.907-30.586-63.926c-19.605-19.603-46.42-26.777-65.463-29.344    c-10.646-1.435-26.176-1.454-26.486-1.458c-33.491-0.327-67.236,8.24-100.208,25.537c-30.331,15.91-58.843,38.895-82.453,66.468    c-45.944,53.656-68.965,118.84-62.737,176.318c-14.541,4.704-27.92,12.006-39.593,21.359c-0.031,0.022-0.064,0.043-0.095,0.066    c0.002,0.002,0.004,0.004,0.006,0.006c-28.526,22.901-46.824,58.045-46.824,97.387c0,68.843,56.008,124.85,124.85,124.85    c51.082,0,95.091-30.842,114.4-74.879C275.31,481.158,319.317,512,370.4,512c68.843,0,124.85-56.008,124.85-124.85    C495.251,318.308,439.244,262.3,370.4,262.3z M390.91,79.33c2.041,2.04,4.715,3.06,7.388,3.06c2.674,0,5.348-1.021,7.388-3.06    c4.08-4.08,4.08-10.696,0-14.778l-43.322-43.321c18.771,1.236,45.737,6.634,63.459,24.357    c25.235,25.235,27.806,66.887,25.658,79.536c-12.654,2.15-54.305-0.424-79.536-25.658c-18.138-18.138-23.46-45.178-24.609-63.711    L390.91,79.33z M141.599,491.102c-57.319,0-103.952-46.633-103.952-103.952c0-32.674,15.157-61.87,38.805-80.94    c5.924-3.681,22.623-6.452,38.952,7.729c13.623,11.831,29.772,14.448,41.391,14.447c8.771,0,14.961-1.491,15.536-1.634    c5.579-1.394,8.956-7.029,7.589-12.615s-7.018-9.013-12.609-7.67c-0.226,0.053-22.629,5.222-38.205-8.305    c-5.4-4.689-11.085-8.218-16.812-10.75c9.299-2.737,19.133-4.213,29.306-4.213c57.319,0,103.951,46.632,103.951,103.952    S198.918,491.102,141.599,491.102z M141.6,262.302c-6.056,0-12.009,0.442-17.837,1.28c-4.702-51.2,16.537-109.434,58.102-157.976    c36.269-42.359,82.714-71.023,129.389-80.895c-19.345,18.446-33.604,42.104-42.496,70.641    c-12.139,38.958-11.053,76.707-8.004,101.514c4.241,34.504,16.216,72.002,34.587,90.584c-0.966,0.729-1.92,1.475-2.864,2.232    c-0.03,0.022-0.064,0.043-0.094,0.065c0.003,0.001,0.005,0.003,0.008,0.004c-15.656,12.565-28.229,28.818-36.39,47.43    C236.69,293.144,192.683,262.302,141.6,262.302z M370.4,491.102c-57.319,0-103.952-46.633-103.952-103.952    c0-32.672,15.156-61.867,38.802-80.938c5.921-3.682,22.623-6.457,38.956,7.727c13.623,11.831,29.772,14.448,41.391,14.447    c8.771,0,14.961-1.491,15.536-1.634c5.579-1.394,8.956-7.029,7.589-12.615c-1.367-5.586-7.018-9.013-12.609-7.671    c-0.226,0.053-22.628,5.222-38.205-8.305c-5.4-4.689-11.084-8.218-16.81-10.751c9.298-2.737,19.131-4.212,29.303-4.212    c57.319,0,103.952,46.632,103.952,103.952S427.721,491.102,370.4,491.102z" fill="#FFFFFF"/>
	</g>
</g>
<g>
	<g>
		<path d="M431.016,91.757l-0.124-0.207c-2.973-4.944-9.392-6.546-14.339-3.574c-4.946,2.973-6.546,9.392-3.573,14.339l0.124,0.207    c1.96,3.261,5.42,5.068,8.966,5.068c1.832,0,3.687-0.482,5.373-1.494C432.388,103.123,433.989,96.704,431.016,91.757z" fill="#FFFFFF"/>
	</g>
</g>
<g>
	<g>
		<path d="M160.158,461.689c-0.638-5.736-5.791-9.866-11.54-9.232c-19.179,2.136-38.003-4.46-51.634-18.091    c-11.08-11.079-17.614-25.79-18.4-41.423c-0.288-5.763-5.158-10.212-10.961-9.911c-5.764,0.289-10.2,5.197-9.91,10.961    c1.047,20.816,9.747,40.403,24.494,55.151c15.902,15.901,37.102,24.608,59.285,24.608c3.128,0,6.281-0.173,9.436-0.523    C156.663,472.591,160.796,467.424,160.158,461.689z" fill="#FFFFFF"/>
	</g>
</g>
<g>
	<g>
		<path d="M79.817,348.22c-5.203-2.432-11.387-0.207-13.856,4.966c-2.548,5.174-0.424,11.434,4.748,13.987    c1.487,0.734,3.064,1.081,4.616,1.081c3.854,0,7.558-2.139,9.379-5.827l0.153-0.317C87.301,356.884,85.045,350.664,79.817,348.22z    " fill="#FFFFFF"/>
	</g>
</g>
<g>
	<g>
		<path d="M388.961,461.689c-0.636-5.736-5.794-9.866-11.54-9.232c-19.185,2.136-38.003-4.461-51.635-18.09    c-11.079-11.08-17.613-25.791-18.399-41.424c-0.289-5.763-5.149-10.212-10.961-9.911c-5.764,0.289-10.2,5.197-9.91,10.961    c1.047,20.815,9.746,40.401,24.493,55.151c15.903,15.901,37.104,24.608,59.286,24.608c3.128,0,6.281-0.173,9.436-0.523    C385.466,472.591,389.598,467.424,388.961,461.689z" fill="#FFFFFF"/>
	</g>
</g>
<g>
	<g>
		<path d="M308.818,348.317c-5.176-2.554-11.44-0.429-13.995,4.746c-0.017,0.032-0.041,0.085-0.057,0.118    c-2.553,5.174-0.427,11.439,4.747,13.993c1.487,0.734,3.064,1.081,4.616,1.081c3.854,0,7.558-2.139,9.379-5.827    c0.013-0.025,0.053-0.109,0.072-0.151C316.109,357.109,313.983,350.865,308.818,348.317z" fill="#FFFFFF"/>
	</g>
</g>
<g>
</g>
<g>
</g>
<g>
</g>
<g>
</g>
<g>
</g>
<g>
</g>
<g>
</g>
<g>
</g>
<g>
</g>
<g>
</g>
<g>
</g>
<g>
</g>
<g>
</g>
<g>
</g>
<g>
</g>
</svg>
