<?xml version="1.0" encoding="iso-8859-1"?>
<!-- Generator: Adobe Illustrator 19.1.0, SVG Export Plug-In . SVG Version: 6.00 Build 0)  -->
<svg version="1.1" id="Capa_1" xmlns="http://www.w3.org/2000/svg" xmlns:xlink="http://www.w3.org/1999/xlink" x="0px" y="0px"
	 viewBox="0 0 49 49" style="enable-background:new 0 0 49 49;" xml:space="preserve">
<g id="dashboard">
	<g>
		<path d="M24,5.5c-13.531,0-24,10.504-24,24c0,5.021,1.397,10.118,4,14h10v-2H5c-2.11-3.488-3-7.895-3-12c0-12.374,9.594-22,22-22
			c12.406,0,23,9.626,23,22c0,4.105-0.89,8.512-3,12h-9v2h10c2.603-3.882,4-8.979,4-14C49,16.004,37.531,5.5,24,5.5z M27.294,24.238
			c-0.909-0.339-1.851-0.516-2.787-0.516c-2.766,0-5.456,1.432-6.938,3.992c-2.21,3.818-0.898,8.7,2.929,10.904
			c1.26,0.726,2.636,1.071,3.994,1.071c2.765,0,5.455-1.432,6.938-3.992c1.955-3.377,1.15-7.584-1.711-10.036l3.617-9.109
			L27.294,24.238z M30.297,30.156c0.415,1.545,0.202,3.158-0.599,4.542c-1.069,1.847-3.063,2.994-5.205,2.994
			c-1.046,0-2.081-0.278-2.993-0.803c-2.866-1.65-3.851-5.319-2.197-8.177c1.069-1.847,3.064-2.994,5.205-2.994
			c1.045,0,2.08,0.278,2.993,0.803C28.889,27.321,29.882,28.612,30.297,30.156z"/>
	</g>
</g>
<g>
</g>
<g>
</g>
<g>
</g>
<g>
</g>
<g>
</g>
<g>
</g>
<g>
</g>
<g>
</g>
<g>
</g>
<g>
</g>
<g>
</g>
<g>
</g>
<g>
</g>
<g>
</g>
<g>
</g>
</svg>
