<?xml version="1.0" encoding="iso-8859-1"?>
<!-- Generator: Adobe Illustrator 18.0.0, SVG Export Plug-In . SVG Version: 6.00 Build 0)  -->
<!DOCTYPE svg PUBLIC "-//W3C//DTD SVG 1.1//EN" "http://www.w3.org/Graphics/SVG/1.1/DTD/svg11.dtd">
<svg version="1.1" id="Capa_1" xmlns="http://www.w3.org/2000/svg" xmlns:xlink="http://www.w3.org/1999/xlink" x="0px" y="0px"
	 viewBox="0 0 368.185 368.185" style="enable-background:new 0 0 368.185 368.185;" xml:space="preserve">
<g>
	<path d="M368.185,161.992c0.05,58.37-14.8,105.74-46.49,147.61c-19.91,26.3-46.51,42.13-78.59,48.1c-22,4.1-44.29,6.71-66.54,9.25
		c-14.93,1.71-29.8-0.83-43.69-6.11c-22.95-8.71-46.08-17.46-65.71-32.79c-8.48-6.63-17.03-13.62-23.84-21.87
		c-28.89-34.97-43-75.14-43.32-120.86c-0.33-46.11,15.12-86.34,44.37-120.41c26.46-30.83,60.87-50.34,101.54-58.27
		c26.85-5.23,53.71-7.5,80.84-4.78c10.32,1.03,20.81,3.1,30.55,6.58c33.1,11.84,60.62,32.02,82.74,59.23
		c14.5,17.84,21.8,39.03,25.06,61.51C366.965,142.022,367.565,155.052,368.185,161.992z M334.805,260.202
		c19.39-43,22.07-87.97,15.32-133.85c-2.88-19.56-10.04-37.79-22.97-53.15c-20.4-24.24-45.12-42.77-74.99-53.69
		c-8.69-3.19-18.12-5.54-27.31-5.92c-20.56-0.84-41.2-0.74-61.77,0c-21.83,0.79-43.21,4.32-62.05,16.67
		c-8.46,5.54-17.2,10.76-25.1,17.03c-7.89,6.28-15.52,13.14-22.11,20.74c-6.83,7.87-13.15,16.46-18.05,25.62
		c-4.54,8.49-7.76,17.71-12.91,26c-1.61,2.6-2.06,5.91-3.89,11.45c8.15-7.81,14.41-13.81,20.67-19.81
		c-6.73,10.27-14.53,19.3-21.89,28.67c-4.99,6.37-5.29,8.76-4.54,17.57c2.73-2.46,5.26-4.74,7.8-7.03c-1.3,4.7-4.12,8.19-6.78,11.81
		c-4.63,6.3-4.83,16.43-0.56,22.64v0.01h-0.01c-3.53,7.84-3.2,15.77-0.57,25.55c6.55-7.95,12.26-14.89,19.05-23.13
		c-0.16,2.79,0.03,3.57-0.27,4c-4.15,5.92-8.34,11.81-12.57,17.68c-6.86,9.51-6.84,14.09,0.29,24.59
		c4.75-5.98,9.5-11.96,14.24-17.93c0.62,0.45,1.23,0.89,1.85,1.33c-3.14,4.63-5.79,9.69-9.51,13.79c-7.37,8.12-6.37,15.86-0.1,24.5
		c3.91-5.1,7.53-10,11.34-14.75c3.8-4.75,7.79-9.35,11.7-14.01c0.63,0.52,1.26,1.05,1.89,1.57c-7.8,10.63-15.61,21.25-23.69,32.26
		c2.28,3.64,4.29,6.85,6.55,10.45c5.84-8.73,11.07-16.54,16.29-24.35c0.7,0.45,1.39,0.9,2.08,1.35
		c-3.53,6.16-7.05,12.33-10.61,18.48c-5.95,10.31-5.81,11.33,3.24,20.19c5.73-8.37,11.42-16.71,17.12-25.04
		c0.67,0.43,1.35,0.85,2.03,1.28c-5.75,9.73-11.5,19.46-17.36,29.38c4.3,4.92,7.96,9.11,12.27,14.05c3.49-6.76,6.17-12.22,9.1-17.55
		c2.89-5.25,6.03-10.37,9.07-15.54c0.51,0.31,1.03,0.63,1.55,0.95c-5.55,11.91-11.1,23.81-16.8,36.04
		c10.64,7.03,20,13.22,29.53,19.51c4.48-6.85,8.18-12.5,11.88-18.16c0.56,0.35,1.12,0.71,1.68,1.06c-3.12,6.25-6.25,12.5-9.69,19.4
		c4.11,1.82,7.26,3.22,10.37,4.6c5.94-8.24,11.46-15.89,16.98-23.55c0.75,0.49,1.5,0.98,2.24,1.48
		c-4.83,7.78-9.66,15.56-14.96,24.08c4.23,1.87,7.75,3.44,11.17,4.95c5.05-6.31,9.76-12.2,14.48-18.09c0.53,0.44,1.07,0.87,1.6,1.31
		c-3.99,5.78-7.98,11.56-12.28,17.79c3.66,1.68,6.41,2.64,8.84,4.12c4.48,2.72,7.39,0.86,9.98-2.79c0.1-0.15,0.91,0.21,1.34,0.32
		c-0.45,1.67-0.91,3.32-1.65,6.05c9.92,0.8,19.27,2.97,28.13,1.7c5.08-0.73,9.8,0.78,14.68-0.29c5.27-1.15,10.75-2.34,16.07-2.08
		c16.27,0.8,31.66-3.49,46.78-8.14c20.25-6.23,38.82-16.13,53.22-32.18C315.835,296.022,326.425,278.802,334.805,260.202z"/>
	<path style="fill:#FBB03B;" d="M350.125,126.352c6.75,45.88,4.07,90.85-15.32,133.85c-8.38,18.6-18.97,35.82-32.57,50.99
		c-14.4,16.05-32.97,25.95-53.22,32.18c-15.12,4.65-30.51,8.94-46.78,8.14c-5.32-0.26-10.8,0.93-16.07,2.08
		c-4.88,1.07-9.6-0.44-14.68,0.29c-8.86,1.27-18.21-0.9-28.13-1.7c0.74-2.73,1.2-4.38,1.65-6.05c-0.43-0.11-1.24-0.47-1.34-0.32
		c-2.59,3.65-5.5,5.51-9.98,2.79c-2.43-1.48-5.18-2.44-8.84-4.12c4.3-6.23,8.29-12.01,12.28-17.79c-0.53-0.44-1.07-0.87-1.6-1.31
		c-4.72,5.89-9.43,11.78-14.48,18.09c-3.42-1.51-6.94-3.08-11.17-4.95c5.3-8.52,10.13-16.3,14.96-24.08
		c-0.74-0.5-1.49-0.99-2.24-1.48c-5.52,7.66-11.04,15.31-16.98,23.55c-3.11-1.38-6.26-2.78-10.37-4.6c3.44-6.9,6.57-13.15,9.69-19.4
		c-0.56-0.35-1.12-0.71-1.68-1.06c-3.7,5.66-7.4,11.31-11.88,18.16c-9.53-6.29-18.89-12.48-29.53-19.51
		c5.7-12.23,11.25-24.13,16.8-36.04c-0.52-0.32-1.04-0.64-1.55-0.95c-3.04,5.17-6.18,10.29-9.07,15.54
		c-2.93,5.33-5.61,10.79-9.1,17.55c-4.31-4.94-7.97-9.13-12.27-14.05c5.86-9.92,11.61-19.65,17.36-29.38
		c-0.68-0.43-1.36-0.85-2.03-1.28c-5.7,8.33-11.39,16.67-17.12,25.04c-9.05-8.86-9.19-9.88-3.24-20.19
		c3.56-6.15,7.08-12.32,10.61-18.48c-0.69-0.45-1.38-0.9-2.08-1.35c-5.22,7.81-10.45,15.62-16.29,24.35
		c-2.26-3.6-4.27-6.81-6.55-10.45c8.08-11.01,15.89-21.63,23.69-32.26c-0.63-0.52-1.26-1.05-1.89-1.57
		c-3.91,4.66-7.9,9.26-11.7,14.01c-3.81,4.75-7.43,9.65-11.34,14.75c-6.27-8.64-7.27-16.38,0.1-24.5c3.72-4.1,6.37-9.16,9.51-13.79
		c-0.62-0.44-1.23-0.88-1.85-1.33c-4.74,5.97-9.49,11.95-14.24,17.93c-7.13-10.5-7.15-15.08-0.29-24.59
		c4.23-5.87,8.42-11.76,12.57-17.68c0.3-0.43,0.11-1.21,0.27-4c-6.79,8.24-12.5,15.18-19.05,23.13c-2.63-9.78-2.96-17.71,0.57-25.55
		h0.01v-0.01c3.79-1.46,5.3-4.39,4.47-8.78c-1.49,2.93-2.98,5.85-4.47,8.78c-4.27-6.21-4.07-16.34,0.56-22.64
		c2.66-3.62,5.48-7.11,6.78-11.81c-2.54,2.29-5.07,4.57-7.8,7.03c-0.75-8.81-0.45-11.2,4.54-17.57c7.36-9.37,15.16-18.4,21.89-28.67
		c-6.26,6-12.52,12-20.67,19.81c1.83-5.54,2.28-8.85,3.89-11.45c5.15-8.29,8.37-17.51,12.91-26c4.9-9.16,11.22-17.75,18.05-25.62
		c6.59-7.6,14.22-14.46,22.11-20.74c7.9-6.27,16.64-11.49,25.1-17.03c18.84-12.35,40.22-15.88,62.05-16.67
		c20.57-0.74,41.21-0.84,61.77,0c9.19,0.38,18.62,2.73,27.31,5.92c29.87,10.92,54.59,29.45,74.99,53.69
		C340.085,88.562,347.245,106.792,350.125,126.352z M311.275,148.822c9.9-15.01,8.92-37.4-1.83-51.91
		c-5.43-7.32-12.49-10.54-21.56-9.62c-9.69,0.99-16.68,6.15-21.92,14.57c-6.28-3.75-11.22-7.58-16.8-9.86
		c-15.71-6.43-36.11-2.77-43.89,14c-7.8,16.83-5.3,32.24,7.63,48.12c14.24,17.5,34.66,22.31,54.9,27.46
		c2.78,0.71,6.79-0.18,9.22-1.83C289.875,171.082,302.555,162.052,311.275,148.822z M273.015,217.412c0.75-1.42,0.2-4.58-0.99-5.79
		c-4.92-5.02-10.29-9.58-15.5-14.31c-0.87,0.33-1.75,0.67-2.63,1.01c-0.41,3.84-0.82,7.69-1.34,12.59
		c-41.35,16.13-84.85,18.45-128.7,12.02c-2.08-4.83,1.7-11.28-5.89-11.8c-3.7,7.79-7.18,15.11-10.69,22.49
		c6.8,5.62,8.88-2.07,14.76-4.52c0,3.24-0.03,5.26,0.01,7.27c0.18,8.3-0.42,16.71,0.72,24.88c3.58,25.86,15.91,44.84,44.67,52.11
		c14,3.53,28,3.46,41.91,1c21.44-3.81,35.4-16.81,42.57-37.26c4.71-13.46,7.21-27.19,5.41-41.5c-0.57-4.53-0.95-9.09-1.56-14.94
		c4.34-0.4,8.11-0.59,11.82-1.16C269.535,219.202,272.325,218.722,273.015,217.412z M162.345,151.492
		c8.92-14.03,10.11-29.03,3.18-44.38c-6.31-14.01-19.75-20.17-34.75-16.31c-12.36,3.18-22.54,9.35-29.22,20.71
		c-5.89-1.69-10.3-3.38-14.87-4.21c-20.66-3.73-43.63,9.43-40.68,37.3c1.07,10.09,6.24,17.33,14.15,23.23
		c18.34,13.7,40.21,17,61.75,21.22c8.86,1.73,15.32-2.44,20.33-9.36C148.995,170.332,156.155,161.222,162.345,151.492z
		 M160.815,349.042c1.41-1.71,2.81-3.42,4.22-5.13c-0.41-0.3-0.81-0.6-1.21-0.9c-1.41,1.68-2.82,3.37-4.24,5.05
		C159.995,348.392,160.405,348.722,160.815,349.042z"/>
	<path style="fill:#C1272D;" d="M309.445,96.912c10.75,14.51,11.73,36.9,1.83,51.91c-8.72,13.23-21.4,22.26-34.25,30.93
		c-2.43,1.65-6.44,2.54-9.22,1.83c-20.24-5.15-40.66-9.96-54.9-27.46c-12.93-15.88-15.43-31.29-7.63-48.12
		c7.78-16.77,28.18-20.43,43.89-14c5.58,2.28,10.52,6.11,16.8,9.86c5.24-8.42,12.23-13.58,21.92-14.57
		C296.955,86.372,304.015,89.592,309.445,96.912z"/>
	<path d="M272.025,211.622c1.19,1.21,1.74,4.37,0.99,5.79c-0.69,1.31-3.48,1.79-5.43,2.09c-3.71,0.57-7.48,0.76-11.82,1.16
		c0.61,5.85,0.99,10.41,1.56,14.94c1.8,14.31-0.7,28.04-5.41,41.5c-7.17,20.45-21.13,33.45-42.57,37.26
		c-13.91,2.46-27.91,2.53-41.91-1c-28.76-7.27-41.09-26.25-44.67-52.11c-1.14-8.17-0.54-16.58-0.72-24.88
		c-0.04-2.01-0.01-4.03-0.01-7.27c-5.88,2.45-7.96,10.14-14.76,4.52c3.51-7.38,6.99-14.7,10.69-22.49c7.59,0.52,3.81,6.97,5.89,11.8
		c43.85,6.43,87.35,4.11,128.7-12.02c0.52-4.9,0.93-8.75,1.34-12.59c0.88-0.34,1.76-0.68,2.63-1.01
		C261.735,202.042,267.105,206.602,272.025,211.622z M248.505,234.382c-0.29-1.81-0.43-3.59-0.89-5.28
		c-0.25-0.95-1.04-1.77-2.07-3.41c-38.02,11.13-76.74,14.7-116.69,8.05c2.78,6.18,6.84,10.11,12.99,12.05
		c31.99,10.08,63.19,9.21,93.52-6.09c3.17-1.6,6.77-2.36,10.14-3.59C246.435,235.772,247.255,235.122,248.505,234.382z
		 M234.425,285.632c-5.35-4.55-5.72-15.23-15.97-13.62c-7.26,1.14-14.38,3.2-21.18,4.77c-0.11,6.68,6.2,11.8-0.47,17.82
		c-1.89-2.67-3.65-4.82-5.05-7.18c-6.25-10.59-12.51-13.64-24.18-10.01c-7.82,2.43-15.18,6.31-23.77,9.98
		C165.305,313.352,215.715,311.532,234.425,285.632z"/>
	<path style="fill:#FFFFFF;" d="M247.615,229.102c0.46,1.69,0.6,3.47,0.89,5.28c-1.25,0.74-2.07,1.39-3,1.73
		c-3.37,1.23-6.97,1.99-10.14,3.59c-30.33,15.3-61.53,16.17-93.52,6.09c-6.15-1.94-10.21-5.87-12.99-12.05
		c39.95,6.65,78.67,3.08,116.69-8.05C246.575,227.332,247.365,228.152,247.615,229.102z"/>
	<path style="fill:#FF7BAC;" d="M218.455,272.012c10.25-1.61,10.62,9.07,15.97,13.62c-18.71,25.9-69.12,27.72-90.62,1.76
		c8.59-3.67,15.95-7.55,23.77-9.98c11.67-3.63,17.93-0.58,24.18,10.01c1.4,2.36,3.16,4.51,5.05,7.18
		c6.67-6.02,0.36-11.14,0.47-17.82C204.075,275.212,211.195,273.152,218.455,272.012z"/>
	<path style="fill:#C1272D;" d="M165.525,107.112c6.93,15.35,5.74,30.35-3.18,44.38c-6.19,9.73-13.35,18.84-20.11,28.2
		c-5.01,6.92-11.47,11.09-20.33,9.36c-21.54-4.22-43.41-7.52-61.75-21.22c-7.91-5.9-13.08-13.14-14.15-23.23
		c-2.95-27.87,20.02-41.03,40.68-37.3c4.57,0.83,8.98,2.52,14.87,4.21c6.68-11.36,16.86-17.53,29.22-20.71
		C145.775,86.942,159.215,93.102,165.525,107.112z"/>
	<path d="M165.035,343.912c-1.41,1.71-2.81,3.42-4.22,5.13c-0.41-0.32-0.82-0.65-1.23-0.98c1.42-1.68,2.83-3.37,4.24-5.05
		C164.225,343.312,164.625,343.612,165.035,343.912z"/>
	<path d="M18.145,176.172c0.83,4.39-0.68,7.32-4.47,8.78C15.165,182.022,16.655,179.102,18.145,176.172z"/>
</g>
<g>
</g>
<g>
</g>
<g>
</g>
<g>
</g>
<g>
</g>
<g>
</g>
<g>
</g>
<g>
</g>
<g>
</g>
<g>
</g>
<g>
</g>
<g>
</g>
<g>
</g>
<g>
</g>
<g>
</g>
</svg>
