<?xml version="1.0" encoding="iso-8859-1"?>
<!-- Generator: Adobe Illustrator 16.0.0, SVG Export Plug-In . SVG Version: 6.00 Build 0)  -->
<!DOCTYPE svg PUBLIC "-//W3C//DTD SVG 1.1//EN" "http://www.w3.org/Graphics/SVG/1.1/DTD/svg11.dtd">
<svg version="1.1" id="Capa_1" xmlns="http://www.w3.org/2000/svg" xmlns:xlink="http://www.w3.org/1999/xlink" x="0px" y="0px"
	 width="49.477px" height="49.477px" viewBox="0 0 49.477 49.477" style="enable-background:new 0 0 49.477 49.477;"
	 xml:space="preserve">
<g>
	<g>
		<path d="M31.502,26.537c4.109,0,7.453-3.343,7.453-7.452s-3.344-7.452-7.453-7.452c-0.295,0-0.584,0.022-0.869,0.055
			c0.834-1.204,1.328-2.663,1.328-4.236C31.961,3.343,28.617,0,24.508,0s-7.452,3.343-7.452,7.452c0,1.557,0.482,3.003,1.302,4.2
			c-0.128-0.007-0.255-0.02-0.385-0.02c-4.109,0.001-7.452,3.344-7.452,7.453s3.343,7.452,7.452,7.452
			c2.125,0,4.032-0.908,5.389-2.341v21.914v2.642v0.726h12.841v-3.367h-10.09v-3.012h6.344v-3.365h-6.344V24.196
			C27.471,25.629,29.377,26.537,31.502,26.537z M31.502,13.467c3.099,0,5.619,2.52,5.619,5.618s-2.521,5.618-5.619,5.618
			c-2.283,0-4.25-1.371-5.127-3.332c1.004-0.057,1.803-0.882,1.803-1.9c0-0.218-0.043-0.423-0.111-0.618
			c0.232,0.101,0.49,0.159,0.76,0.159c1.057,0,1.911-0.855,1.911-1.911c0-0.755-0.442-1.402-1.077-1.713
			c0.572-0.33,0.963-0.941,0.963-1.65c0-0.066-0.014-0.128-0.02-0.192C30.897,13.499,31.195,13.467,31.502,13.467z M24.508,1.834
			c3.098,0,5.619,2.52,5.619,5.618c0,1.634-0.707,3.103-1.824,4.131c0.017-0.095,0.027-0.191,0.027-0.291
			c0-1.056-0.854-1.911-1.91-1.911c-0.762,0-1.414,0.448-1.72,1.092c-0.308-0.644-0.959-1.092-1.72-1.092
			c-1.056,0-1.911,0.855-1.911,1.911c0,0.218,0.044,0.423,0.111,0.619c-0.035-0.01-0.072-0.017-0.109-0.025
			c-1.324-1.028-2.18-2.631-2.18-4.434C18.892,4.354,21.412,1.834,24.508,1.834z M17.974,24.703c-3.098,0-5.618-2.52-5.618-5.618
			s2.52-5.618,5.618-5.618c0.267,0,0.528,0.025,0.785,0.061c-0.008,0.07-0.021,0.138-0.021,0.21c0,0.732,0.417,1.36,1.021,1.681
			c-0.604,0.321-1.021,0.949-1.021,1.682c0,1.056,0.855,1.911,1.911,1.911c0.176,0,0.343-0.032,0.505-0.076
			c-0.05,0.17-0.085,0.348-0.085,0.535c0,1.056,0.855,1.911,1.911,1.911c0.043,0,0.082-0.014,0.124-0.017
			C22.228,23.328,20.259,24.703,17.974,24.703z M23.001,16.595c-0.091-0.127-0.168-0.265-0.228-0.413
			c-0.096-0.236-0.151-0.493-0.151-0.762c0-1.124,0.915-2.038,2.039-2.038c1.124,0,2.038,0.914,2.038,2.038
			s-0.914,2.038-2.038,2.038C23.977,17.458,23.373,17.115,23.001,16.595z"/>
		<path d="M24.753,15.945h-0.031c0.005,0.011,0.01,0.021,0.016,0.032C24.744,15.966,24.749,15.956,24.753,15.945z"/>
	</g>
</g>
<g>
</g>
<g>
</g>
<g>
</g>
<g>
</g>
<g>
</g>
<g>
</g>
<g>
</g>
<g>
</g>
<g>
</g>
<g>
</g>
<g>
</g>
<g>
</g>
<g>
</g>
<g>
</g>
<g>
</g>
</svg>
