<?xml version="1.0" encoding="utf-8"?>
<!-- Generator: Adobe Illustrator 19.0.0, SVG Export Plug-In . SVG Version: 6.00 Build 0)  -->
<svg version="1.1" id="Capa_1" xmlns="http://www.w3.org/2000/svg" xmlns:xlink="http://www.w3.org/1999/xlink" x="0px" y="0px"
	 viewBox="106 -181 512 512" style="enable-background:new 106 -181 512 512;" xml:space="preserve">
<style type="text/css">
	.st0{fill:#FFFFFF;}
</style>
<g>
	<g>
		<path class="st0" d="M527.5,155.2c-14.4,6.3-28.4,9.2-42.7,7.4l-9.1,29l-0.4,1.7c10.9,4.8,17.2,10.3,17.2,16.2
			c0,18.1-58.5,32.7-130.6,32.7c-22.1,0-42.9-1.4-61.1-3.8c1.4-5.9,1.8-12.9,1-21c17,4.1,37.6,6.6,60.2,6.6
			c56.9,0,102.9-15.3,102.9-34.3l12.4-39.7c4.9,1.3,9.8,2.2,15,2.2c12.2,0,25.2-3.5,38.5-10.5c28.7-15,55.5-45.1,61.1-68.6
			c4.1-17,2.4-30.2-5.1-40.2c-12.5-16.7-38-19.9-66.3-21.5l1.2-3.8c2.3-3.6,3.5-7.4,3.5-11.2C525.3-33.7,452.2-58,362-58
			c-90.2,0-163.3,24.4-163.3,54.4c0,3.8,1.2,7.6,3.5,11.2l7.8,25.1c-15.6,6.1-29,25-19.7,61.5c-32.3-8.2-57,1.3-62.8,23
			c-3,11.2-0.1,22.4,8.2,31.8c6.7,7.6,16.7,13.5,29.5,17.8c-30.3,13.6-48.3,30.3-48.3,48.6c0,45.1,109.8,81.7,245.1,81.7
			c135.4,0,245.1-36.6,245.1-81.7C607.1,191.5,576.3,170.2,527.5,155.2z M573.8,42.7c4.4,5.9,5.2,14.6,2.3,26.6
			c-4,16.7-25.3,43.6-52.8,58c-10.7,5.6-26.1,10.6-41.1,7l33.3-106.8C540.7,28.8,565,31,573.8,42.7z M362-36.3
			c72.1,0,130.6,14.6,130.6,32.7S434.1,29,362,29c-72.2,0-130.6-14.6-130.6-32.7S289.8-36.3,362-36.3z M288.3,204.3
			c7.9,29.5-0.2,47.1-14.9,51c-14.7,4-30.5-7.2-38.4-36.7c-2.4-9-2.4-18.9-1.3-28.5c-3.8,8.8-8.8,17.5-15.4,24
			c-21.6,21.6-40.8,23.4-51.6,12.5c-10.8-10.8-9-30,12.6-51.6c6.6-6.5,15.2-11.5,24-15.3c-9.5,1.1-19.5,1.1-28.5-1.3
			c-29.5-7.9-40.6-23.7-36.7-38.4c3.9-14.7,21.5-22.9,51-15c8.9,2.4,17.6,7.4,25.3,13.1c-5.7-7.7-10.7-16.4-13.1-25.3
			c-7.9-29.5,0.2-47,14.9-51c14.7-4,30.5,7.2,38.4,36.7c2.4,9,2.4,18.9,1.3,28.5c3.8-8.8,8.8-17.5,15.4-24
			c21.6-21.6,40.8-23.4,51.6-12.6c10.8,10.8,9,30-12.6,51.6c-6.6,6.6-15.2,11.5-24,15.3c9.5-1.1,19.5-1.1,28.4,1.3
			c29.5,7.9,40.6,23.7,36.7,38.5c-3.9,14.7-21.5,22.8-51,14.9c-9-2.4-17.6-7.3-25.3-13.1C280.9,186.7,285.9,195.4,288.3,204.3z"/>
		<path class="st0" d="M244.8,126.5c12.2,0,22.1,9.9,22.1,22.1c0,12.2-9.9,22.1-22.1,22.1c-12.2,0-22.1-9.9-22.1-22.1
			C222.7,136.4,232.6,126.5,244.8,126.5z"/>
	</g>
</g>
</svg>
