<?xml version="1.0" encoding="iso-8859-1"?>
<!-- Generator: Adobe Illustrator 17.1.0, SVG Export Plug-In . SVG Version: 6.00 Build 0)  -->
<!DOCTYPE svg PUBLIC "-//W3C//DTD SVG 1.1//EN" "http://www.w3.org/Graphics/SVG/1.1/DTD/svg11.dtd">
<svg version="1.1" id="Capa_1" xmlns="http://www.w3.org/2000/svg" xmlns:xlink="http://www.w3.org/1999/xlink" x="0px" y="0px"
	 viewBox="0 0 470.001 470.001" style="enable-background:new 0 0 470.001 470.001;" xml:space="preserve">
<g>
	<path d="M374.533,154.098c-7.533,0-14.963,0.892-22.2,2.618l-1.036-26.404c-0.158-4.024-3.466-7.206-7.494-7.206h-93.736V82.125
		c0-4.142-3.358-7.5-7.5-7.5c-38.6,0-74.163,19.408-95.131,51.916c-0.013,0.019-0.018,0.04-0.03,0.06
		c-0.685,1.081-1.108,2.345-1.162,3.711l-0.837,21.349h-48.01L55.054,84.428l3.34-2.138c3.488-2.234,4.505-6.872,2.272-10.361
		c-2.234-3.487-6.871-4.505-10.361-2.272L3.457,99.653c-3.488,2.234-4.505,6.872-2.272,10.361c1.432,2.236,3.852,3.457,6.323,3.457
		c1.384,0,2.785-0.383,4.038-1.185l2.806-1.796l123.692,228.956l-2.129,54.29c-0.08,2.039,0.674,4.022,2.088,5.492
		c1.414,1.471,3.366,2.302,5.406,2.302h210.726c2.04,0,3.992-0.831,5.406-2.302s2.168-3.454,2.088-5.492l-1.955-49.86
		c4.899,0.766,9.868,1.161,14.86,1.161c52.642,0,95.468-42.827,95.468-95.469S427.174,154.098,374.533,154.098z M374.533,330.035
		c-5.211,0-10.391-0.501-15.461-1.487l-0.608-15.505c5.221,1.324,10.596,1.995,16.069,1.995c36.101,0,65.471-29.371,65.471-65.472
		s-29.37-65.471-65.471-65.471c-7.155,0-14.256,1.188-20.991,3.468l-0.609-15.517c7-1.946,14.24-2.948,21.599-2.948
		c44.37,0,80.468,36.098,80.468,80.468C455.001,293.937,418.903,330.035,374.533,330.035z M322.957,371.529h22.789l0.588,15H151.208
		l0.588-15h141.161c4.142,0,7.5-3.358,7.5-7.5s-3.358-7.5-7.5-7.5H152.384l2.449-62.436c0.163-4.139-3.061-7.626-7.2-7.788
		c-4.128-0.166-7.626,3.061-7.788,7.2l-0.648,16.518L27.018,102.379l15.403-9.862l99.132,157.404l-0.534,13.611
		c-0.163,4.139,3.061,7.626,7.2,7.788c0.1,0.004,0.2,0.006,0.299,0.006c4.006,0,7.331-3.167,7.489-7.206l4.942-126.012h175.642
		l7.714,196.683c0.002,0.057,0.004,0.115,0.007,0.172l0.846,21.567h-22.2c-4.142,0-7.5,3.358-7.5,7.5
		S318.815,371.529,322.957,371.529z M235.066,89.909v33.198H168.75C185.634,103.787,209.321,91.857,235.066,89.909z
		 M354.164,203.419c6.387-2.824,13.34-4.324,20.369-4.324c27.83,0,50.471,22.641,50.471,50.471s-22.641,50.472-50.471,50.472
		c-5.745,0-11.344-0.964-16.691-2.847L354.164,203.419z M144.819,166.661l-2.226,56.762l-35.748-56.762H144.819z"/>
</g>
<g>
</g>
<g>
</g>
<g>
</g>
<g>
</g>
<g>
</g>
<g>
</g>
<g>
</g>
<g>
</g>
<g>
</g>
<g>
</g>
<g>
</g>
<g>
</g>
<g>
</g>
<g>
</g>
<g>
</g>
</svg>
