<?xml version="1.0" encoding="utf-8"?>
<!-- Generator: Adobe Illustrator 19.0.0, SVG Export Plug-In . SVG Version: 6.00 Build 0)  -->
<svg version="1.1" id="Layer_1" xmlns="http://www.w3.org/2000/svg" xmlns:xlink="http://www.w3.org/1999/xlink" x="0px" y="0px"
	 viewBox="-117 44 64 64" style="enable-background:new -117 44 64 64;" xml:space="preserve">
<path id="Clouds" d="M-60.2,79.4c-0.8,0-1.6,0.1-2.3,0.4c-1.3-4.9-5.8-8.3-10.9-8.3c-5.1,0-9.5,3.4-10.9,8.2
	c-0.8-0.2-1.6-0.3-2.4-0.3c-5.1,0-9.6,3.4-10.9,8.3c-0.7-0.2-1.5-0.4-2.3-0.4c-4.1,0-7.4,3.3-7.4,7.4c0,4.1,3.3,7.4,7.4,7.4h24.7
	c3.4,0,6.2-2.8,6.2-6.2c0-0.6-0.1-1.2-0.3-1.8h9.2c4.1,0,7.4-3.3,7.4-7.4C-52.9,82.7-56.2,79.4-60.2,79.4z M-75.3,100.4H-100
	c-3.1,0-5.7-2.5-5.7-5.7c0-3.1,2.5-5.7,5.7-5.7c0.9,0,1.7,0.2,2.5,0.6c0.2,0.1,0.5,0.1,0.8,0c0.2-0.1,0.4-0.3,0.5-0.6
	c0.8-4.6,4.8-7.9,9.5-7.9c5.3,0,9.6,4.3,9.6,9.6c0,0.3,0.1,0.5,0.3,0.7c0.2,0.2,0.5,0.2,0.7,0.2c0.3,0,0.5-0.1,0.8-0.1
	c2.5,0,4.5,2,4.5,4.5C-70.9,98.4-72.9,100.4-75.3,100.4z M-60.2,92.4h-10c-1.1-1.7-3.1-2.7-5.2-2.7c-0.4-4.4-3.3-8-7.2-9.6
	c1.2-4.1,4.9-7,9.3-7c4.7,0,8.6,3.3,9.5,7.9c0,0.3,0.2,0.5,0.5,0.6c0.2,0.1,0.5,0.1,0.8,0c0.8-0.4,1.6-0.6,2.5-0.6
	c3.1,0,5.7,2.5,5.7,5.7C-54.6,89.9-57.1,92.4-60.2,92.4z"/>
</svg>
