<?xml version="1.0" encoding="utf-8"?>
<!-- Generator: Adobe Illustrator 19.0.0, SVG Export Plug-In . SVG Version: 6.00 Build 0)  -->
<svg version="1.1" id="Layer_1" xmlns="http://www.w3.org/2000/svg" xmlns:xlink="http://www.w3.org/1999/xlink" x="0px" y="0px"
	 viewBox="-117 44 64 64" style="enable-background:new -117 44 64 64;" xml:space="preserve">
<g id="Sun-cloud">
	<path d="M-68.8,91.2c0-4.9-4-8.8-8.8-8.8c-3.4,0-6.5,2-7.9,5c-2.2-3-5.7-5-9.7-5c-5.4,0-10,3.6-11.5,8.7c-0.8-0.3-1.6-0.4-2.4-0.4
		c-4.3,0-7.7,3.5-7.7,7.7c0,4.3,3.5,7.7,7.7,7.7h25.9c3.5,0,6.3-2.8,6.5-6.2C-72.2,99.5-68.8,95.7-68.8,91.2z M-83.2,104.4H-109
		c-3.3,0-5.9-2.7-5.9-5.9c0-3.3,2.7-5.9,5.9-5.9c0.9,0,1.8,0.2,2.7,0.6c0.3,0.1,0.6,0.1,0.8,0c0.3-0.1,0.4-0.4,0.5-0.7
		c0.9-4.8,5-8.3,9.9-8.3c5.5,0,10,4.5,10.1,10c0,0.3,0.1,0.5,0.3,0.7c0.2,0.2,0.5,0.2,0.7,0.2c0.3-0.1,0.6-0.1,0.9-0.1
		c2.6,0,4.7,2.1,4.7,4.7C-78.5,102.3-80.6,104.4-83.2,104.4z M-76.9,98.1c-0.7-2.8-3.3-4.9-6.3-4.9c-0.1,0-0.1,0-0.2,0
		c-0.1-1.4-0.5-2.6-1-3.8c0,0,0-0.1,0-0.1c0.8-3,3.6-5.1,6.7-5.1c3.9,0,7,3.1,7,7C-70.6,94.8-73.3,97.8-76.9,98.1z"/>
	<path d="M-77.6,80.2c0.5,0,0.9-0.4,0.9-0.9v-6.7c0-0.5-0.4-0.9-0.9-0.9c-0.5,0-0.9,0.4-0.9,0.9v6.7C-78.5,79.8-78.1,80.2-77.6,80.2
		z"/>
	<path d="M-59.4,89.9h-6.7c-0.5,0-0.9,0.4-0.9,0.9c0,0.5,0.4,0.9,0.9,0.9h6.7c0.5,0,0.9-0.4,0.9-0.9C-58.5,90.3-58.9,89.9-59.4,89.9
		z"/>
	<path d="M-69.7,84.2c0.2,0,0.5-0.1,0.6-0.3l4.7-4.7c0.4-0.4,0.4-0.9,0-1.3c-0.4-0.4-0.9-0.4-1.3,0l-4.7,4.7c-0.4,0.4-0.4,0.9,0,1.3
		C-70.1,84.1-69.9,84.2-69.7,84.2z"/>
	<path d="M-69,98.8c-0.4-0.4-0.9-0.4-1.3,0c-0.4,0.4-0.4,0.9,0,1.3l4.7,4.7c0.2,0.2,0.4,0.3,0.6,0.3c0.2,0,0.5-0.1,0.6-0.3
		c0.4-0.4,0.4-0.9,0-1.3L-69,98.8z"/>
	<path d="M-86.1,83.9c0.2,0.2,0.4,0.3,0.6,0.3c0.2,0,0.5-0.1,0.6-0.3c0.4-0.4,0.4-0.9,0-1.3l-4.7-4.7c-0.4-0.4-0.9-0.4-1.3,0
		c-0.4,0.4-0.4,0.9,0,1.3L-86.1,83.9z"/>
</g>
</svg>
