<?xml version="1.0" encoding="iso-8859-1"?>
<!-- Generator: Adobe Illustrator 18.1.1, SVG Export Plug-In . SVG Version: 6.00 Build 0)  -->
<svg version="1.1" id="Capa_1" xmlns="http://www.w3.org/2000/svg" xmlns:xlink="http://www.w3.org/1999/xlink" x="0px" y="0px"
	 viewBox="0 0 19.357 19.357" style="enable-background:new 0 0 19.357 19.357;" xml:space="preserve">
<g>
	<path style="fill:#030104;" d="M14.276,9.325c0.802-1.235,1.56-2.403,1.56-3.689C15.836,2.529,13.074,0,9.679,0
		S3.521,2.528,3.521,5.636c0,1.375,0.816,2.561,1.679,3.818c1.079,1.57,2.301,3.346,2.301,5.946v0.367
		c-0.002,0.021-0.008,0.041-0.008,0.063v2.691c0,0.463,0.45,0.836,1.004,0.836h2.568c0.555,0,1.004-0.373,1.004-0.836V15.83
		c0-0.055-0.007-0.107-0.019-0.16v-0.291C12.049,12.754,13.232,10.933,14.276,9.325z M11.046,14.921
		c-0.322,0.005-0.775,0.005-1.233,0.008c0.109-0.809,0.094-2.125,0.172-2.756c0.087-0.723,0.142-1.449,0.154-2.177
		c0.022-1.245-0.072-2.508-0.362-3.714l-0.03-0.13c0.488,1.27,0.742,2.713,0.837,4.408c0.023,0.416-0.069,0.858-0.069,1.288
		c0.7-0.211,2.259-2.065,1.995-3.724c-0.296-1.843-3.485-3.269-3.303-4.81S7.271,7.068,7.566,8.911
		c0.211,1.332,0.846,2.093,2.137,2.763c-0.021,0.103,0.158,1.677-0.458,3.257c-0.274,0-0.532,0.002-0.743,0.002
		C8.365,12.317,7.093,10.464,6.06,8.96C5.243,7.77,4.535,6.742,4.535,5.635c0-2.597,2.307-4.708,5.144-4.708
		s5.143,2.111,5.143,4.708c0,1.03-0.657,2.043-1.418,3.216C12.405,10.39,11.175,12.286,11.046,14.921z"/>
</g>
<g>
</g>
<g>
</g>
<g>
</g>
<g>
</g>
<g>
</g>
<g>
</g>
<g>
</g>
<g>
</g>
<g>
</g>
<g>
</g>
<g>
</g>
<g>
</g>
<g>
</g>
<g>
</g>
<g>
</g>
</svg>
