<?xml version="1.0" encoding="iso-8859-1"?>
<!-- Generator: Adobe Illustrator 19.0.0, SVG Export Plug-In . SVG Version: 6.00 Build 0)  -->
<svg version="1.1" id="Layer_1" xmlns="http://www.w3.org/2000/svg" xmlns:xlink="http://www.w3.org/1999/xlink" x="0px" y="0px"
	 viewBox="0 0 512.002 512.002" style="enable-background:new 0 0 512.002 512.002;" xml:space="preserve">
<g>
	<g>
		<path d="M462.486,206.493C462.486,92.453,370.048,0,256.001,0S49.516,92.453,49.516,206.493
			c0,91.953,60.094,169.851,143.157,196.585l-1.453,0.219c-0.375,0.055-0.75,0.125-1.125,0.219
			c-5.719,1.445-9.172,7.242-7.734,12.953c1.172,4.633,5.203,7.789,9.734,8.039v20.859l-0.891,0.133
			c-0.359,0.055-0.734,0.125-1.109,0.219c-5.719,1.445-9.172,7.244-7.734,12.955c1.172,4.633,5.203,7.781,9.734,8.039v20.859
			l-0.875,0.125c-0.375,0.055-0.75,0.125-1.125,0.219c-5.719,1.445-9.172,7.242-7.734,12.961c1.359,5.367,6.563,8.75,11.938,7.93
			l51.047-7.617c-0.016,0.398,0,0.797,0.047,1.203c0.578,5.859,5.797,10.141,11.672,9.555c5.859-0.586,10.141-5.813,9.547-11.672
			c-0.063-0.758-0.234-1.492-0.453-2.195l54.641-8.156c0.375-0.055,0.75-0.125,1.125-0.219c5.703-1.445,9.172-7.242,7.719-12.961
			c-1.156-4.594-5.156-7.727-9.641-8.023v-20.885l0.797-0.117c0.375-0.055,0.75-0.125,1.125-0.219
			c5.703-1.445,9.172-7.242,7.719-12.953c-1.156-4.602-5.156-7.734-9.641-8.031v-23.656
			C402.72,375.914,462.486,298.195,462.486,206.493z M298.673,471.658l-85.25,12.727v-20.633l85.25-12.727V471.658z
			 M298.673,429.453l-85.25,12.727v-20.633l67.203-10.031c6.094-0.727,12.109-1.711,18.047-2.953V429.453z M328.189,209.43
			c-0.969-5.813-6.469-9.727-12.281-8.75c-1.594,0.266-3.031,0.875-4.266,1.727v-0.008c-1.141,0.781-27.938,19.368-51.453,52.868
			c-3.078,4.375-5.938,8.812-8.609,13.289c-4.047-6.648-6.703-14.125-7.734-22.078c-1.953-14.961,2.047-29.789,11.25-41.75
			c18.391-23.922,52.438-37.664,77.766-44.977c12.719-3.672,24.594-6.133,33.953-7.742c0.859,9.469,1.531,21.578,1.234,34.805
			c-0.563,26.352-5.094,62.79-23.484,86.711c-10.797,14.031-27.156,22.078-44.891,22.078c-11.938,0-23.281-3.68-32.953-10.641
			c3.141-5.672,6.641-11.297,10.516-16.859c21.295-30.548,46.233-47.946,46.483-48.118v-0.008
			C327.017,217.696,328.892,213.649,328.189,209.43z M278.845,390.258v-0.039l-1.234,0.18c-7.125,0.828-14.328,1.25-21.609,1.25
			c-2.047,0-4.078-0.039-6.109-0.109c-6.203-29.891-3.672-59.047,7.547-87.094c12.953,8.406,27.641,12.492,42.234,12.492
			c23.359,0,46.453-10.461,61.797-30.406c42.734-55.57,23.813-158.539,23.813-158.539s-99.813,7.805-144.188,60.125
			c-33.797-17.875-78.063-19.422-92.328-19.422c-2.984,0-4.641,0.063-4.641,0.063S138.954,250,177.032,288.984
			c11.875,12.148,27.594,18.242,43.328,18.242c4.703,0,9.406-0.555,14-1.648c-1.344,3.969-2.547,7.961-3.594,11.977
			c-6.125,23.5-7.109,47.664-2.969,71.969c-15.063-2.297-29.734-6.438-43.859-12.414c-22.046-9.329-41.859-22.68-58.86-39.688
			c-17.016-17.016-30.375-36.82-39.688-58.867c-9.656-22.812-14.547-47.054-14.547-72.062s4.891-49.25,14.547-72.063
			c9.313-22.047,22.672-41.852,39.688-58.868c17.001-17.008,36.813-30.359,58.86-39.688c22.813-9.648,47.063-14.539,72.063-14.539
			s49.25,4.891,72.063,14.539c22.047,9.328,41.859,22.68,58.859,39.688c17.016,17.016,30.375,36.82,39.688,58.868
			c9.656,22.813,14.547,47.055,14.547,72.063s-4.891,49.25-14.547,72.062c-9.313,22.047-22.672,41.852-39.688,58.867
			c-17,17.008-36.813,30.359-58.859,39.688C312.267,383.79,295.798,388.188,278.845,390.258z M200.251,244.126
			c11.703,13.109,24.453,28.414,32.922,39.632c-4.078,1.406-8.391,2.141-12.813,2.141c-10.656,0-20.625-4.203-28.063-11.82
			c-12.234-12.523-20.797-33.953-24.766-61.968c-1.094-7.797-1.703-15.141-2.016-21.438c8.688,0.633,19.438,1.875,30.625,4.258
			c12.797,2.727,23.984,6.508,33.266,11.18c-4.577,9.733-6.999,20.132-7.327,30.538c-3.438-3.953-5.719-6.5-5.922-6.742
			c-1.828-2.039-4.422-3.375-7.359-3.539c-5.875-0.336-10.922,4.164-11.25,10.047C197.376,239.36,198.423,242.087,200.251,244.126z"
			/>
	</g>
</g>
<g>
</g>
<g>
</g>
<g>
</g>
<g>
</g>
<g>
</g>
<g>
</g>
<g>
</g>
<g>
</g>
<g>
</g>
<g>
</g>
<g>
</g>
<g>
</g>
<g>
</g>
<g>
</g>
<g>
</g>
</svg>
