<?xml version="1.0" encoding="iso-8859-1"?>
<!-- Generator: Adobe Illustrator 18.0.0, SVG Export Plug-In . SVG Version: 6.00 Build 0)  -->
<!DOCTYPE svg PUBLIC "-//W3C//DTD SVG 1.1//EN" "http://www.w3.org/Graphics/SVG/1.1/DTD/svg11.dtd">
<svg xmlns="http://www.w3.org/2000/svg" xmlns:xlink="http://www.w3.org/1999/xlink" version="1.1" id="Capa_1" x="0px" y="0px" viewBox="0 0 293.646 293.646" style="enable-background:new 0 0 293.646 293.646;" xml:space="preserve" width="512px" height="512px">
<g>
	<path d="M104.653,288.685c0.717,2.916,3.334,4.961,6.33,4.961h68.774c2.997,0,5.613-2.045,6.331-4.961l15.377-62.132H89.275   L104.653,288.685z" fill="#FFFFFF"/>
	<path d="M172.364,151.873c4.989,1.902,10.07,2.775,15.013,2.563c13.931-0.599,26.756-9.432,33.264-25.537   c6.344-15.691-0.536-45.306-5.161-61.452c-0.387-1.348-1.575-2.31-2.973-2.406c-1.399-0.098-2.71,0.691-3.277,1.973   c-4.041,9.124-13.994,21.689-38.501,27.887c-19.618,6.397-23.586,29.535-14.176,44.584c-0.195,0.096-0.38,0.152-0.579,0.263   c-4.696,2.664-8.508,5.484-11.612,8.33c-6.338-18.923-8.83-42.975,6.702-63.38c14.722-19.339,42.021-25.28,59.056-57.535   c4.36-8.257,5.358-17.517,3.965-25.941c-0.125-0.761-0.82-1.292-1.587-1.213c-0.767,0.078-1.342,0.739-1.31,1.509   c0.123,2.998,0.021,5.952-0.535,8.221c-5.686,29.392-41.596,44.254-51.377,49.694c-5.613,3.086-11.077,6.908-16.164,11.342   c-0.268-19.068-12.841-26.487-13.974-47.845c-0.034-0.646-0.555-1.161-1.202-1.188c-0.647-0.027-1.208,0.443-1.296,1.085   c-3.206,23.396,13.798,36.268,7.524,57.203c-22.899,28.194-19.902,65.447-6.788,99.117H89.086c-2.239,0-4.32,1.145-5.514,3.03   l-12.104,19.06c-2.762,4.361,0.396,10.029,5.514,10.029h136.774c5.119,0,8.275-5.67,5.514-10.029l-12.102-19.06   c-1.194-1.886-3.275-3.03-5.514-3.03h-41.962c-2.336-3.48-8.159-12.625-12.968-24.637c3.437-2.912,7.57-5.754,12.525-8.26   c7.663-3.874,30.242-18.01,40.589-34.192c0.238-0.373,0.713-0.519,1.119-0.342c0.406,0.177,0.625,0.622,0.515,1.052   C195.989,134.215,175.588,149.658,172.364,151.873z" fill="#FFFFFF"/>
</g>
<g>
</g>
<g>
</g>
<g>
</g>
<g>
</g>
<g>
</g>
<g>
</g>
<g>
</g>
<g>
</g>
<g>
</g>
<g>
</g>
<g>
</g>
<g>
</g>
<g>
</g>
<g>
</g>
<g>
</g>
</svg>
