<?xml version="1.0" encoding="iso-8859-1"?>
<!-- Generator: Adobe Illustrator 19.0.0, SVG Export Plug-In . SVG Version: 6.00 Build 0)  -->
<svg version="1.1" id="Layer_1" xmlns="http://www.w3.org/2000/svg" xmlns:xlink="http://www.w3.org/1999/xlink" x="0px" y="0px"
	 viewBox="0 0 511.974 511.974" style="enable-background:new 0 0 511.974 511.974;" xml:space="preserve">
<path style="fill:#FECD57;" d="M453.287,205.565c0,106.149-86.057,192.223-192.222,192.223
	c-106.166,0-192.223-86.073-192.223-192.223c0-106.166,86.058-192.223,192.223-192.223C367.23,13.342,453.287,99.4,453.287,205.565z
	"/>
<polygon style="fill:#9ED36A;" points="326.951,160.896 278.783,175.52 236.629,211.643 236.629,257.234 253.831,295.935 
	298.562,307.98 348.466,289.92 375.121,234.016 375.121,148.459 "/>
<polygon style="fill:#8AC054;" points="236.629,259.375 239.629,204.331 225.02,197.878 160.071,184.551 163.508,237.454 
	178.57,275.295 199.631,294.654 228.457,302.387 246.519,292.076 "/>
<rect x="199.307" y="396.317" style="fill:#CBD0D8;" width="106.57" height="90.65"/>
<path d="M462.459,206.487C462.459,92.447,370.027,0,255.987,0S49.515,92.447,49.515,206.487c0,91.947,60.09,169.833,143.147,196.565
	l-1.453,0.219c-0.375,0.063-0.75,0.125-1.125,0.219c-5.718,1.453-9.171,7.25-7.734,12.953c1.172,4.641,5.203,7.797,9.734,8.047
	v20.857l-0.891,0.125c-0.359,0.063-0.734,0.125-1.109,0.219c-5.718,1.453-9.171,7.25-7.734,12.952
	c1.172,4.641,5.203,7.78,9.734,8.046v20.859l-0.875,0.125c-0.375,0.047-0.75,0.125-1.125,0.219
	c-5.718,1.438-9.171,7.233-7.734,12.951c1.359,5.375,6.562,8.75,11.937,7.938l51.043-7.625c-0.016,0.406,0,0.797,0.047,1.203
	c0.578,5.859,5.797,10.141,11.671,9.563c5.859-0.594,10.141-5.813,9.547-11.672c-0.063-0.766-0.234-1.5-0.453-2.203l54.637-8.154
	c0.375-0.047,0.75-0.125,1.125-0.219c5.702-1.438,9.171-7.234,7.718-12.953c-1.156-4.594-5.156-7.734-9.64-8.031v-20.873
	l0.797-0.125c0.375-0.047,0.75-0.125,1.125-0.219c5.702-1.438,9.171-7.234,7.718-12.953c-1.156-4.593-5.156-7.733-9.64-8.03v-23.655
	C402.697,375.898,462.459,298.184,462.459,206.487z M125.073,337.401c-17.015-17.015-30.373-36.811-39.685-58.856
	c-9.655-22.811-14.546-47.059-14.546-72.058c0-25.014,4.891-49.247,14.546-72.058c9.312-22.045,22.67-41.857,39.685-58.872
	c16.999-16.999,36.811-30.357,58.856-39.685c22.811-9.64,47.06-14.53,72.058-14.53c24.999,0,49.247,4.89,72.058,14.53
	c22.046,9.328,41.857,22.686,58.856,39.685c17.015,17.015,30.373,36.826,39.685,58.872c9.656,22.811,14.547,47.044,14.547,72.058
	c0,24.999-4.891,49.247-14.547,72.058c-9.312,22.046-22.67,41.842-39.685,58.856c-16.999,17.015-36.811,30.357-58.856,39.685
	c-15.795,6.688-32.264,11.078-49.215,13.156v-0.047l-1.234,0.188c-7.125,0.828-14.327,1.25-21.608,1.25
	c-2.047,0-4.078-0.047-6.109-0.109c-6.203-29.889-3.672-59.044,7.546-87.089c12.952,8.405,27.639,12.483,42.231,12.483
	c23.358,0,46.451-10.453,61.793-30.404c42.732-55.559,23.812-158.521,23.812-158.521s-99.807,7.796-144.179,60.121
	c-33.795-17.874-78.058-19.42-92.323-19.42c-2.984,0-4.64,0.063-4.64,0.063s-5.171,81.229,32.904,120.211
	c11.874,12.155,27.592,18.248,43.325,18.248c4.703,0,9.406-0.563,14-1.655c-1.344,3.968-2.547,7.968-3.594,11.983
	c-6.125,23.498-7.109,47.653-2.968,71.965c-15.062-2.297-29.733-6.438-43.857-12.422
	C161.883,367.758,142.072,354.416,125.073,337.401z M323.702,219.97L323.702,219.97c3.296-2.281,5.171-6.328,4.468-10.546
	c-0.969-5.813-6.468-9.734-12.279-8.75c-1.594,0.266-3.031,0.875-4.266,1.718l0,0c-1.141,0.781-27.936,19.358-51.45,52.856
	c-3.078,4.375-5.938,8.813-8.609,13.296c-4.047-6.655-6.703-14.124-7.734-22.077c-1.953-14.968,2.046-29.795,11.249-41.748
	c18.39-23.92,52.435-37.669,77.761-44.981c12.719-3.672,24.592-6.125,33.951-7.734c0.859,9.468,1.531,21.577,1.234,34.794
	c-0.563,26.358-5.094,62.793-23.482,86.714c-10.797,14.03-27.155,22.077-44.889,22.077c-11.937,0-23.279-3.688-32.95-10.641
	c3.14-5.672,6.64-11.296,10.515-16.858C298.515,237.548,323.452,220.142,323.702,219.97z M222.067,236.641
	c-3.437-3.953-5.718-6.5-5.921-6.75l0,0c-1.828-2.031-4.421-3.375-7.359-3.531c-5.875-0.344-10.921,4.156-11.25,10.046
	c-0.172,2.938,0.875,5.671,2.703,7.703l0,0c11.703,13.109,24.452,28.42,32.92,39.638c-4.078,1.406-8.39,2.141-12.812,2.141
	c-10.655,0-20.624-4.203-28.061-11.828c-12.234-12.514-20.795-33.95-24.764-61.964c-1.094-7.796-1.703-15.14-2.016-21.436
	c8.687,0.641,19.437,1.875,30.623,4.265c12.796,2.719,23.983,6.5,33.264,11.171C224.817,215.83,222.395,226.236,222.067,236.641z
	 M298.656,471.627l-85.245,12.734v-20.64l85.245-12.718V471.627z M298.656,429.426l-85.245,12.733V421.52l67.2-10.031
	c6.093-0.719,12.107-1.703,18.045-2.953L298.656,429.426L298.656,429.426z"/>
<g>
</g>
<g>
</g>
<g>
</g>
<g>
</g>
<g>
</g>
<g>
</g>
<g>
</g>
<g>
</g>
<g>
</g>
<g>
</g>
<g>
</g>
<g>
</g>
<g>
</g>
<g>
</g>
<g>
</g>
</svg>
