<?xml version="1.0" encoding="iso-8859-1"?>
<!-- Generator: Adobe Illustrator 19.0.0, SVG Export Plug-In . SVG Version: 6.00 Build 0)  -->
<svg xmlns="http://www.w3.org/2000/svg" xmlns:xlink="http://www.w3.org/1999/xlink" version="1.1" id="Layer_1" x="0px" y="0px" viewBox="0 0 512.002 512.002" style="enable-background:new 0 0 512.002 512.002;" xml:space="preserve" width="512px" height="512px">
<g>
	<g>
		<path d="M508.264,191.917c-7.385-22.73-25.313-40.99-50.482-51.416c-24.228-10.037-53.572-12.143-82.624-5.926    c-4.412,0.944-7.223,5.287-6.28,9.698c0.944,4.413,5.286,7.223,9.698,6.28c52.806-11.299,101.877,8.656,114.145,46.414    c6.481,19.946,2.068,42.275-12.425,62.874c-14.999,21.317-38.825,38.115-67.09,47.298c-35.197,11.436-72.727,8.888-98.953-6.521    c-0.812-3.112-2.081-6.145-3.825-9.003c7.399-3.074,13.407-8.609,17.083-15.826c2.828-5.55,4.045-11.632,3.609-17.69l24.254-7.88    c4.291-1.394,6.641-6.003,5.245-10.294c-1.393-4.292-6.009-6.641-10.294-5.245l-24.261,7.883c-2.44-3.922-5.643-7.245-9.364-9.834    c22.609-23.761,35.812-59.423,35.812-98.081c0-33.232-9.774-64.566-27.52-88.226c-18.273-24.364-42.789-37.783-69.03-37.783    c-23.899,0-46.806,11.408-64.5,32.122c-17.033,19.942-28.102,47.197-31.167,76.748c-0.466,4.488,2.795,8.505,7.283,8.97    c4.49,0.465,8.505-2.795,8.97-7.283c5.572-53.711,39.713-94.216,79.415-94.216c44.229,0,80.21,49.197,80.21,109.669    c0,37.017-14.028,71.935-36.799,92.113c-0.647-0.037-1.293-0.077-1.947-0.077c-2.626,0-5.24,0.31-7.797,0.921    c-1.181-14.579-11.653-26.568-25.479-30.017v-25.515c0-4.512-3.657-8.17-8.17-8.17c-4.513,0-8.17,3.658-8.17,8.17v25.515    c-4.496,1.122-8.636,3.145-12.219,5.868c-15.607-28.855-45.45-52.439-82.224-64.388c-31.605-10.27-64.426-10.658-92.413-1.092    c-28.819,9.85-49.156,29.019-57.264,53.976c-7.386,22.73-3.615,48.041,10.618,71.27c13.702,22.362,36.203,41.311,63.361,53.358    c1.076,0.478,2.202,0.704,3.308,0.704c3.132,0,6.12-1.812,7.472-4.859c1.83-4.125-0.03-8.951-4.155-10.781    C34.935,279.745,6.965,234.76,19.232,197.001c6.481-19.946,23.175-35.417,47.009-43.563c24.663-8.43,53.812-8.014,82.079,1.169    c35.197,11.436,64.065,35.558,76.224,63.441c-1.179,3.001-1.939,6.209-2.209,9.556c-2.559-0.61-5.171-0.92-7.798-0.92    c-11.87,0-22.578,6.143-28.639,15.879l-24.26-7.883c-4.287-1.395-8.901,0.954-10.294,5.245c-1.394,4.291,0.954,8.901,5.245,10.295    l24.265,7.885c-0.322,4.619,0.321,9.179,1.802,13.426c-32.26,5.933-63.903,27.023-86.625,58.3    c-19.534,26.885-30.044,57.978-29.594,87.553c0.462,30.452,12.409,55.716,33.638,71.141c13.468,9.785,29.797,14.809,47.419,14.809    c7.678,0,15.604-0.954,23.642-2.883c25.502-6.121,50.477-21.666,70.327-43.77c3.015-3.357,2.738-8.523-0.62-11.537    c-3.359-3.017-8.525-2.736-11.537,0.62c-36.081,40.178-87.51,52.878-119.627,29.544c-35.781-25.997-35.972-86.947-0.429-135.87    c21.746-29.931,53.595-49.928,83.863-52.885c2.495,2.055,5.317,3.772,8.423,5.065c-7.619,12.489-6.194,28.348,2.965,39.267    l-14.998,20.642c-2.653,3.65-1.843,8.759,1.807,11.412c1.45,1.053,3.13,1.561,4.795,1.561c2.525,0,5.018-1.168,6.616-3.368    l14.996-20.639c3.983,1.614,8.247,2.459,12.631,2.459c0.239,0,0.474-0.016,0.711-0.022c-4.32,32.509,5.96,69.114,28.679,100.383    c19.533,26.885,45.856,46.49,74.121,55.202c10.523,3.244,20.861,4.85,30.782,4.849c17.516,0,33.72-5.01,47.273-14.857    c19.336-14.048,31.162-36.742,33.3-63.899c2.06-26.144-5.007-54.702-19.896-80.41c-2.261-3.904-7.258-5.237-11.165-2.975    c-3.904,2.261-5.238,7.261-2.975,11.165c27.063,46.729,23.25,99.565-8.869,122.9c-16.968,12.329-39.567,15.032-63.638,7.612    c-24.908-7.677-48.246-25.146-65.715-49.191c-21.751-29.936-30.928-66.415-24.378-96.12c2.747-1.758,5.245-3.915,7.4-6.423    c6.378,7.418,15.764,11.785,25.633,11.785c4.383,0,8.647-0.844,12.631-2.459l14.996,20.639c1.599,2.2,4.089,3.368,6.616,3.368    c1.665,0,3.345-0.508,4.795-1.561c3.651-2.653,4.46-7.762,1.807-11.412l-14.998-20.642c2.983-3.556,5.145-7.634,6.443-11.952    c16.285,7.794,35.113,11.769,54.888,11.769c16.152,0,32.932-2.647,49.462-8.018c31.606-10.269,58.386-29.247,75.405-53.436    C511.188,244.335,516.374,216.874,508.264,191.917z M255.985,212.919c9.61,0,17.43,7.819,17.43,17.43s-7.819,17.43-17.43,17.43    c-9.61,0-17.43-7.819-17.43-17.43S246.374,212.919,255.985,212.919z M202.2,272.741c-0.157-0.18-0.321-0.35-0.493-0.514    c-4.096-4.484-5.746-10.976-3.741-17.153c2.344-7.21,9.003-12.053,16.573-12.053c1.821,0,3.635,0.29,5.391,0.861    c4.427,1.439,8.03,4.515,10.144,8.664c2.114,4.148,2.485,8.872,1.047,13.299c-2.342,7.208-9.002,12.05-16.572,12.05    c-1.821,0-3.635-0.29-5.391-0.859C206.435,276.151,204.089,274.645,202.2,272.741z M244.474,319.418    c-1.632,2.246-3.765,4.04-6.185,5.275c-0.198,0.084-0.391,0.176-0.582,0.276c-2.278,1.058-4.783,1.636-7.354,1.636    c-3.691,0.001-7.227-1.15-10.225-3.329c-7.776-5.649-9.506-16.571-3.856-24.346c3.27-4.5,8.549-7.188,14.122-7.188    c3.691,0,7.226,1.151,10.225,3.33c3.766,2.736,6.241,6.776,6.97,11.374C248.316,311.045,247.21,315.651,244.474,319.418z     M255.992,287.166c-1.693-1.963-3.62-3.75-5.769-5.312c-2.145-1.559-4.434-2.841-6.827-3.844c1.336-2.204,2.442-4.582,3.266-7.116    c0.821-2.527,1.33-5.106,1.545-7.69c2.499,0.591,5.101,0.914,7.779,0.914c2.678,0,5.28-0.322,7.779-0.914    c0.216,2.584,0.724,5.161,1.545,7.69c0.824,2.535,1.93,4.912,3.266,7.116c-2.393,1.003-4.683,2.286-6.827,3.844    C259.581,283.429,257.666,285.218,255.992,287.166z M291.842,323.275c-2.999,2.179-6.534,3.331-10.225,3.331    c-5.573,0-10.852-2.686-14.122-7.186c-5.649-7.776-3.918-18.696,3.856-24.346c2.999-2.179,6.534-3.331,10.225-3.331    c5.573,0,10.852,2.686,14.122,7.188c1.733,2.386,2.765,5.068,3.147,7.803c0.008,0.06,0.021,0.118,0.029,0.176    C299.667,313.034,297.18,319.397,291.842,323.275z M302.811,277.035c-1.756,0.57-3.57,0.859-5.39,0.859    c-7.57,0-14.23-4.842-16.572-12.05c-1.438-4.427-1.066-9.151,1.047-13.299c2.113-4.148,5.716-7.225,10.144-8.664    c1.757-0.572,3.571-0.861,5.391-0.861c7.57,0,14.229,4.843,16.571,12.051c1.438,4.427,1.066,9.15-1.047,13.299    C310.842,272.52,307.239,275.596,302.811,277.035z" fill="#FFFFFF"/>
	</g>
</g>
<g>
</g>
<g>
</g>
<g>
</g>
<g>
</g>
<g>
</g>
<g>
</g>
<g>
</g>
<g>
</g>
<g>
</g>
<g>
</g>
<g>
</g>
<g>
</g>
<g>
</g>
<g>
</g>
<g>
</g>
</svg>
