<?xml version="1.0" encoding="iso-8859-1"?>
<!-- Generator: Adobe Illustrator 16.0.0, SVG Export Plug-In . SVG Version: 6.00 Build 0)  -->
<!DOCTYPE svg PUBLIC "-//W3C//DTD SVG 1.1//EN" "http://www.w3.org/Graphics/SVG/1.1/DTD/svg11.dtd">
<svg xmlns="http://www.w3.org/2000/svg" xmlns:xlink="http://www.w3.org/1999/xlink" version="1.1" id="Capa_1" x="0px" y="0px" width="512px" height="512px" viewBox="0 0 181.281 181.281" style="enable-background:new 0 0 181.281 181.281;" xml:space="preserve">
<g>
	<g>
		<path d="M151.846,103.842c-5.338,2.331-10.488,3.393-15.802,2.737l-3.348,10.723l-0.131,0.646    c4.036,1.762,6.378,3.808,6.378,5.977c0,6.675-21.623,12.081-48.307,12.081c-8.175,0-15.868-0.509-22.61-1.401    c0.507-2.199,0.668-4.782,0.359-7.747c6.271,1.51,13.915,2.429,22.251,2.429c21.021,0,38.058-5.674,38.058-12.689l4.58-14.671    c1.795,0.481,3.634,0.811,5.562,0.806c4.507,0,9.324-1.303,14.247-3.88c10.606-5.55,20.53-16.693,22.61-25.371    c1.51-6.299,0.893-11.155-1.886-14.865c-4.637-6.186-14.063-7.363-24.521-7.962l0.439-1.406c0.84-1.335,1.289-2.725,1.289-4.142    c0-11.117-27.031-20.126-60.378-20.126c-33.346,0-60.374,9.009-60.374,20.126c0,1.417,0.453,2.807,1.289,4.142l2.897,9.278    c-5.774,2.246-10.715,9.256-7.282,22.744c-11.934-3.037-21.061,0.492-23.22,8.522c-1.103,4.124-0.033,8.299,3.021,11.759    c2.475,2.811,6.185,4.988,10.91,6.57C6.667,113.145,0,119.338,0,126.079c0,16.69,40.582,30.223,90.643,30.223    c50.063,0,90.638-13.532,90.638-30.223C181.275,117.264,169.896,109.363,151.846,103.842z M168.976,62.225    c1.629,2.183,1.914,5.406,0.846,9.844c-1.471,6.165-9.362,16.11-19.527,21.433c-3.974,2.073-9.654,3.933-15.192,2.57    l12.317-39.479C156.707,57.087,165.726,57.899,168.976,62.225z M90.637,33.018c26.671,0,48.302,5.409,48.302,12.077    s-21.631,12.074-48.302,12.074c-26.679,0-48.307-5.407-48.307-12.074S63.967,33.018,90.637,33.018z M63.4,121.998    c2.92,10.901-0.068,17.4-5.526,18.862c-5.451,1.461-11.294-2.676-14.208-13.571c-0.892-3.316-0.896-7.005-0.483-10.522    c-1.412,3.261-3.248,6.459-5.68,8.877c-7.982,7.971-15.103,8.634-19.092,4.638c-3.99-3.982-3.333-11.107,4.646-19.085    c2.433-2.419,5.604-4.27,8.881-5.675c-3.53,0.41-7.224,0.399-10.529-0.487c-10.897-2.922-15.028-8.76-13.564-14.205    c1.46-5.453,7.95-8.452,18.847-5.532c3.308,0.897,6.518,2.737,9.357,4.859c-2.117-2.855-3.961-6.051-4.84-9.363    c-2.925-10.905,0.066-17.391,5.514-18.855c5.452-1.462,11.291,2.678,14.215,13.564c0.887,3.32,0.892,7.004,0.465,10.531    c1.417-3.268,3.268-6.462,5.689-8.878c7.973-7.984,15.093-8.64,19.089-4.648c3.988,3.989,3.334,11.111-4.646,19.095    c-2.43,2.423-5.61,4.262-8.871,5.674c3.527-0.416,7.218-0.399,10.517,0.471c10.896,2.928,15.023,8.766,13.562,14.227    c-1.453,5.45-7.945,8.438-18.85,5.516c-3.311-0.892-6.512-2.714-9.352-4.848C60.671,115.497,62.503,118.688,63.4,121.998z" fill="#FFFFFF"/>
		<path d="M47.303,93.221c4.511,0,8.169,3.661,8.169,8.169c0,4.509-3.658,8.17-8.169,8.17c-4.513,0-8.17-3.661-8.17-8.17    C39.132,96.882,42.79,93.221,47.303,93.221z" fill="#FFFFFF"/>
	</g>
</g>
<g>
</g>
<g>
</g>
<g>
</g>
<g>
</g>
<g>
</g>
<g>
</g>
<g>
</g>
<g>
</g>
<g>
</g>
<g>
</g>
<g>
</g>
<g>
</g>
<g>
</g>
<g>
</g>
<g>
</g>
</svg>
