<?xml version="1.0" encoding="iso-8859-1"?>
<!-- Generator: Adobe Illustrator 19.0.0, SVG Export Plug-In . SVG Version: 6.00 Build 0)  -->
<svg xmlns="http://www.w3.org/2000/svg" xmlns:xlink="http://www.w3.org/1999/xlink" version="1.1" id="Layer_1" x="0px" y="0px" viewBox="0 0 512 512" style="enable-background:new 0 0 512 512;" xml:space="preserve" width="512px" height="512px">
<g>
	<g>
		<path d="M358.613,247.983c-4.427,0-8.017,3.589-8.017,8.017v8.551c0,4.427,3.589,8.017,8.017,8.017s8.017-3.589,8.017-8.017V256    C366.63,251.573,363.04,247.983,358.613,247.983z" fill="#FFFFFF"/>
	</g>
</g>
<g>
	<g>
		<path d="M232.435,283.448c-0.485-4.401-4.439-7.573-8.847-7.09c-20.197,2.227-40.422,2.291-60.119,0.19    c-4.392-0.467-8.351,2.718-8.821,7.122c-0.468,4.402,2.72,8.35,7.122,8.82c10.122,1.08,20.374,1.619,30.686,1.619    c10.921,0,21.911-0.605,32.889-1.815C229.745,291.81,232.92,287.849,232.435,283.448z" fill="#FFFFFF"/>
	</g>
</g>
<g>
	<g>
		<path d="M111.395,341.24c-0.924-4.329-5.177-7.092-9.512-6.169l-43.469,9.264c-4.33,0.922-7.092,5.181-6.17,9.511    c0.803,3.767,4.13,6.347,7.833,6.347c0.554,0,1.115-0.058,1.679-0.179l43.469-9.264    C109.556,349.829,112.318,345.57,111.395,341.24z" fill="#FFFFFF"/>
	</g>
</g>
<g>
	<g>
		<path d="M508.148,117.201c-2.778-1.69-5.466-2.958-8.219-3.875c-11.291-3.763-23.089-2.249-32.715,3.191    c2.972-9.707,6.286-19.261,10.006-28.561c1.645-4.111-0.355-8.776-4.466-10.421c-4.112-1.645-8.777,0.356-10.421,4.467    c-3.315,8.286-6.314,16.762-9.05,25.355c-4.814-7.588-12.162-13.633-21.332-16.69c-2.752-0.917-5.664-1.517-8.901-1.831    c-3.058-0.301-6.025,1.183-7.625,3.812c-1.691,2.779-2.959,5.469-3.876,8.22c-3.418,10.254-2.638,21.224,2.195,30.892    c4.833,9.668,13.142,16.875,23.396,20.292c1.351,0.45,2.742,0.822,4.188,1.123c-1.812,8.655-3.398,17.32-4.789,25.943    c-7.234-10.809-18.705-18.754-32.508-21.106c-3.459-0.589-7.059-0.768-11.004-0.547c-3.072,0.172-5.774,2.088-6.954,4.93    c-1.515,3.648-2.539,7.104-3.129,10.566c-4.544,26.669,13.456,52.063,40.125,56.607c2.341,0.399,4.751,0.602,7.282,0.627    c-0.776,9.248-1.36,18.287-1.788,27.04l-25.358-11.513c-11.277-23.996-36.572-41.282-63.742-40.462    c-20.051,0.596-38.704,9.991-51.173,25.775c-1.019,1.29-2.052,2.542-3.091,3.777c-25.102-55.389-74.327-123.037-169.121-150.313    c-2.074-0.597-4.304-0.331-6.184,0.738c-1.877,1.069-3.244,2.851-3.789,4.94c-0.486,1.861-10.714,42.361,6.077,83.29    c-22.977-3.987-46.637-4.814-70.758-2.403c-2.15,0.215-4.122,1.289-5.47,2.978c-1.348,1.689-1.956,3.85-1.688,5.993    c0.345,2.767,8.545,63.617,60.48,94.022l-14.216,9.478c-1.943,1.296-3.225,3.373-3.51,5.691c-0.285,2.317,0.454,4.644,2.026,6.372    c0.321,0.353,3.199,3.479,8.43,8.055c-26.144,2.766-52.784,4.189-79.459,4.189c-2.726,0-5.264,1.385-6.74,3.676    c-1.476,2.292-1.686,5.177-0.558,7.658l42.756,94.063c0.942,2.073,2.721,3.648,4.894,4.331c2.174,0.683,4.533,0.408,6.492-0.753    c0.262-0.156,25.227-14.935,60.043-33.648c25.786,32.608,65.229,51.871,106.89,51.871c57.341,0,108.864-36.32,128.208-90.38    c0.959-2.679,3.484-4.727,6.755-5.477c22.475-5.159,40.134-21.214,48.064-41.721l22.799-9.122    c-0.043,3.55-0.065,7.031-0.065,10.416c0,4.427,3.589,8.017,8.017,8.017c4.427,0,8.017-3.589,8.017-8.017    c0-5.41,0.051-11.045,0.167-16.871l3.346-1.338c2.984-1.194,4.967-4.055,5.037-7.27c0.07-3.214-1.787-6.159-4.718-7.481    l-3.131-1.422c0.412-10.037,1.03-20.5,1.907-31.247c1.862,0.565,3.698,1.009,5.534,1.322c2.777,0.472,5.539,0.701,8.266,0.701    c23.463,0,44.269-16.935,48.34-40.825c0.59-3.46,0.77-7.06,0.548-11.006c-0.172-3.072-2.089-5.774-4.93-6.955    c-3.65-1.515-7.106-2.539-10.566-3.128c-12.919-2.201-25.922,0.76-36.613,8.338c-1.789,1.269-3.467,2.65-5.049,4.115    c1.396-9.054,3.015-18.158,4.883-27.25c0.777,0.32,1.555,0.618,2.339,0.879c4.205,1.402,8.529,2.097,12.835,2.097    c6.195,0,12.353-1.441,18.057-4.293c9.667-4.832,16.874-13.142,20.291-23.395c0.918-2.753,1.518-5.665,1.832-8.902    C512.259,121.762,510.778,118.8,508.148,117.201z M428.353,211.923c-0.119,0.697-0.267,1.4-0.446,2.114    c-0.733-0.067-1.446-0.159-2.143-0.279c-17.953-3.059-30.071-20.154-27.012-38.106c0.119-0.697,0.267-1.402,0.447-2.115    c0.733,0.067,1.446,0.16,2.143,0.279C419.294,176.875,431.411,193.97,428.353,211.923z M120.093,102.491    c86.777,28.175,131.038,93.33,153.136,144.909c-3.484,3.224-7.047,6.179-10.689,8.823c-6.771-6.977-14.338-14.166-22.726-21.296    c-25.532-21.702-53.304-38.265-82.544-49.231c-8.323-3.121-16.774-5.763-25.328-7.973    C116.192,149.092,117.992,117.062,120.093,102.491z M51.833,186.287c34.526-2.271,67.956,2.531,99.487,14.303    c27.453,10.25,53.588,25.79,77.68,46.19c30.621,25.928,50.208,53.306,58.38,65.893c-48.125,23.559-95.189,26.534-140.003,8.82    c-23.635-9.342-40.759-22.425-49.613-30.18l13.939-9.293c2.974,1.014,7.498,2.44,13.422,3.96c0.668,0.172,1.338,0.253,1.998,0.253    c3.572,0,6.831-2.406,7.759-6.026c1.1-4.288-1.485-8.657-5.773-9.757c-9.186-2.357-14.628-4.446-15.376-4.74    C70.883,247.314,56.218,204.358,51.833,186.287z M353.171,323.555c-8.627,1.981-15.455,7.851-18.264,15.702    c-17.069,47.701-62.526,79.748-113.112,79.748c-38.837,0-75.499-18.988-98.07-50.794c-2.336-3.289-6.749-4.332-10.308-2.435    c-26.45,14.096-48.089,26.423-59.02,32.746l-33.977-74.748c28.765-0.457,57.42-2.52,85.393-6.122    c9.397,6.289,21.117,12.93,34.973,18.474c17.167,6.867,39.257,12.582,65.241,12.582c28.068,0,60.68-6.675,96.499-25.779    c1.897-1.012,3.308-2.743,3.916-4.806c0.608-2.062,0.363-4.282-0.681-6.162c-0.626-1.128-11.291-20.08-32.274-43.902    c9.729-7.292,18.916-16.373,27.383-27.091c9.525-12.057,23.765-19.233,39.068-19.687c27-0.806,52.414,22.986,53.378,49.907    C394.206,295.989,377.323,318.012,353.171,323.555z M409.154,278.46c0.206-2.585,0.281-5.2,0.187-7.843    c-0.056-1.536-0.188-3.056-0.356-4.571l14.663,6.614L409.154,278.46z M442.333,136.777c-0.011,0.03-0.02,0.061-0.031,0.091    c-0.03-0.01-0.06-0.02-0.09-0.03c-6.191-2.062-11.207-6.413-14.125-12.251c-2.918-5.836-3.388-12.461-1.325-18.652    c0.01-0.03,0.02-0.06,0.03-0.09c0.03,0.011,0.06,0.02,0.09,0.03C439.661,110.134,446.592,123.998,442.333,136.777z     M452.588,216.052c1.482-8.698,6.262-16.296,13.458-21.399c7.198-5.101,15.953-7.095,24.649-5.613    c0.697,0.119,1.4,0.267,2.114,0.446c-0.067,0.733-0.16,1.446-0.279,2.143c-3.059,17.953-20.153,30.069-38.106,27.012    c-0.697-0.119-1.401-0.267-2.115-0.447C452.376,217.463,452.469,216.75,452.588,216.052z M494.919,128.656    c-2.063,6.19-6.413,11.206-12.251,14.125c-5.836,2.918-12.459,3.389-18.651,1.324c-0.03-0.01-0.06-0.02-0.09-0.03    c0.01-0.03,0.02-0.06,0.03-0.09c4.26-12.78,18.125-19.71,30.903-15.451c0.03,0.01,0.06,0.02,0.09,0.03    C494.939,128.596,494.929,128.626,494.919,128.656z" fill="#FFFFFF"/>
	</g>
</g>
<g>
</g>
<g>
</g>
<g>
</g>
<g>
</g>
<g>
</g>
<g>
</g>
<g>
</g>
<g>
</g>
<g>
</g>
<g>
</g>
<g>
</g>
<g>
</g>
<g>
</g>
<g>
</g>
<g>
</g>
</svg>
