<?xml version="1.0" encoding="iso-8859-1"?>
<!-- Generator: Adobe Illustrator 19.0.0, SVG Export Plug-In . SVG Version: 6.00 Build 0)  -->
<svg version="1.1" id="Capa_1" xmlns="http://www.w3.org/2000/svg" xmlns:xlink="http://www.w3.org/1999/xlink" x="0px" y="0px"
	 viewBox="0 0 463.005 463.005" style="enable-background:new 0 0 463.005 463.005;" xml:space="preserve">
<path d="M462.714,241.442c-1.139-3.983-5.294-6.285-9.272-5.151l-48.861,13.961c-3.211,0.918-6.581,0.846-9.75-0.212l-37.262-12.421
	c-3.218-1.072-6.569-1.616-9.961-1.616h-33.185c-1.996-4.643-4.201-9.238-6.62-13.729c-1.18-2.191-2.407-4.315-3.656-6.406
	l60.422-26.854c5.135-2.281,9.574-5.904,12.84-10.477l31.727-44.416c3.839-5.373,5.868-11.705,5.868-18.311v-8.309
	c0-4.143-3.357-7.5-7.5-7.5s-7.5,3.357-7.5,7.5v8.309c0,3.46-1.063,6.776-3.073,9.591l-31.728,44.417
	c-1.71,2.396-4.035,4.292-6.725,5.487l-62.756,27.892c-5.438-7.342-11.305-13.819-17.473-19.263l71.972-50.38
	c4.572-3.2,8.347-7.25,11.22-12.038l15.933-26.555c3.684-6.138,5.63-13.166,5.63-20.323V59.502c0-4.143-3.357-7.5-7.5-7.5
	s-7.5,3.357-7.5,7.5v15.137c0,4.439-1.207,8.798-3.492,12.605L348.577,113.8c-1.781,2.97-4.122,5.481-6.958,7.466l-74.417,52.092
	c-0.526,0.368-0.982,0.796-1.382,1.261c-0.947-0.59-1.899-1.146-2.854-1.688c5.135-15.069,1.136-43.065-8.913-61.082
	c-1.145-2.054-3.187-3.451-5.516-3.775c-2.335-0.322-4.675,0.463-6.338,2.125l-10.696,10.697l-10.696-10.697
	c-1.663-1.662-4.009-2.449-6.338-2.125s-4.371,1.722-5.516,3.775c-10.049,18.017-14.048,46.014-8.913,61.082
	c-0.955,0.542-1.907,1.098-2.854,1.688c-0.4-0.465-0.856-0.893-1.382-1.261l-74.417-52.092c-2.836-1.984-5.177-4.496-6.958-7.466
	L98.493,87.243c-2.284-3.807-3.491-8.165-3.491-12.604V59.502c0-4.143-3.357-7.5-7.5-7.5s-7.5,3.357-7.5,7.5v15.137
	c0,7.157,1.946,14.186,5.629,20.322l15.934,26.556c2.873,4.788,6.647,8.838,11.22,12.038l71.972,50.38
	c-6.168,5.444-12.035,11.921-17.473,19.263l-62.757-27.893c-2.688-1.194-5.014-3.091-6.725-5.486l-31.727-44.418
	c-2.011-2.813-3.073-6.13-3.073-9.59v-8.309c0-4.143-3.357-7.5-7.5-7.5s-7.5,3.357-7.5,7.5v8.309c0,6.605,2.029,12.937,5.868,18.31
	l31.726,44.417c3.267,4.572,7.706,8.195,12.84,10.476l60.423,26.855c-1.249,2.091-2.476,4.215-3.656,6.406
	c-2.419,4.491-4.624,9.085-6.62,13.729h-33.185c-3.392,0-6.743,0.544-9.961,1.616l-37.261,12.421
	c-3.168,1.056-6.541,1.129-9.751,0.211L9.563,236.29c-3.982-1.135-8.135,1.168-9.272,5.151s1.169,8.134,5.151,9.272l48.861,13.959
	c2.844,0.813,5.753,1.219,8.66,1.219c3.357,0,6.712-0.542,9.955-1.622l37.262-12.421c1.685-0.562,3.44-0.847,5.217-0.847h27.559
	c-3.861,11.98-6.2,23.934-6.788,35.039l-14.101,4.7c-4.741,1.58-8.783,4.565-11.691,8.635l-36.207,50.691
	c-0.27,0.377-0.574,0.736-0.905,1.067l-47.063,47.063c-2.929,2.93-2.929,7.678,0,10.607c1.465,1.464,3.385,2.196,5.304,2.196
	s3.839-0.732,5.304-2.196l47.063-47.063c0.914-0.915,1.758-1.91,2.506-2.958l36.205-50.688c1.052-1.472,2.515-2.553,4.229-3.124
	l9.74-3.247c5.118,47.87,45.746,85.277,94.952,85.277s89.834-37.407,94.952-85.277l9.74,3.247c1.715,0.571,3.178,1.652,4.229,3.123
	l36.205,50.688c0.749,1.05,1.593,2.045,2.507,2.96l47.063,47.063c1.465,1.464,3.385,2.196,5.304,2.196s3.839-0.732,5.304-2.196
	c2.929-2.93,2.929-7.678,0-10.607l-47.063-47.063c-0.331-0.331-0.636-0.69-0.906-1.069l-36.207-50.69
	c-2.907-4.068-6.949-7.054-11.69-8.634l-14.101-4.7c-0.588-11.105-2.927-23.059-6.788-35.039h27.559
	c1.776,0,3.532,0.285,5.217,0.847l37.263,12.421c3.242,1.081,6.596,1.622,9.954,1.622c2.907,0,5.816-0.405,8.66-1.218l48.861-13.96
	C461.545,249.576,463.852,245.425,462.714,241.442z M217.89,128.496l8.309,8.31c2.93,2.928,7.678,2.928,10.607,0l8.309-8.31
	c5.231,14.686,6.498,32.536,3.424,40.221c-0.082,0.204-0.149,0.411-0.211,0.617c-3.855,0.872-7.39,3.228-9.777,6.854
	c-1.571,2.388-4.206,3.813-7.048,3.813s-5.477-1.426-7.048-3.814c-2.386-3.625-5.922-5.982-9.777-6.854
	c-0.063-0.206-0.13-0.412-0.211-0.616C211.392,161.033,212.659,143.182,217.89,128.496z M231.502,372.002
	c-44.388,0-80.5-36.112-80.5-80.5c0-37.212,25.752-91.101,60.215-107.521c0.018-0.009,0.039-0.013,0.064-0.013
	c0.154,0,0.438,0.154,0.642,0.464c4.354,6.618,11.674,10.569,19.579,10.569s15.225-3.951,19.579-10.568
	c0.238-0.361,0.584-0.507,0.706-0.453c34.463,16.421,60.215,70.31,60.215,107.521C312.002,335.89,275.89,372.002,231.502,372.002z"
	/>
<g>
</g>
<g>
</g>
<g>
</g>
<g>
</g>
<g>
</g>
<g>
</g>
<g>
</g>
<g>
</g>
<g>
</g>
<g>
</g>
<g>
</g>
<g>
</g>
<g>
</g>
<g>
</g>
<g>
</g>
</svg>
