<?xml version="1.0" encoding="iso-8859-1"?>
<!-- Generator: Adobe Illustrator 19.0.0, SVG Export Plug-In . SVG Version: 6.00 Build 0)  -->
<svg version="1.1" id="Layer_1" xmlns="http://www.w3.org/2000/svg" xmlns:xlink="http://www.w3.org/1999/xlink" x="0px" y="0px"
	 viewBox="0 0 512 512" style="enable-background:new 0 0 512 512;" xml:space="preserve">
<g>
	<g>
		<path d="M503.06,201.256l-20.71-20.71l2.111-2.111c14.925-14.926,14.608-39.528-0.706-54.844l-30.16-30.16
			c-7.37-7.369-17.095-11.528-27.384-11.709c-10.388-0.172-20.18,3.724-27.46,11.004l-2.11,2.11l-20.71-20.71
			c-11.899-11.898-31.26-11.9-43.16,0l-81.644,81.645c-5.764,5.764-8.938,13.429-8.938,21.58c0,8.152,3.174,15.817,8.938,21.581
			l41.063,41.063l-61.702,12.929l-43.888-37.556c-4.86-4.161-11.487-5.08-17.295-2.406c-4.133,1.903-7.142,5.308-8.538,9.416h-9.594
			C67.816,222.375,0,290.193,0,373.55v23.877c0,5.789,4.694,10.484,10.484,10.484c5.79,0,10.484-4.695,10.484-10.484V373.55
			c0-71.796,58.41-130.207,130.207-130.207h8.719v33.143h-8.719c-53.521,0-97.062,43.542-97.062,97.063v15.38
			c0,5.789,4.694,10.484,10.484,10.484c5.79,0,10.484-4.695,10.484-10.484v-15.38c0-41.959,34.136-76.096,76.094-76.096h8.719
			v33.144h-8.719c-23.683,0-42.951,19.268-42.951,42.951v21.753c0,5.789,4.694,10.484,10.484,10.484s10.484-4.695,10.484-10.484
			V373.55c0-12.122,9.862-21.983,21.983-21.983h9.657c1.424,4.023,4.405,7.352,8.474,9.226c2.202,1.014,4.521,1.51,6.817,1.51
			c3.762,0,7.461-1.334,10.48-3.916l45.138-38.633l139.473-0.738l7.045,7.044c5.765,5.764,13.429,8.938,21.58,8.938
			c8.152,0,15.816-3.174,21.58-8.938l81.644-81.645c5.765-5.764,8.94-13.429,8.94-21.58C512,214.684,508.824,207.02,503.06,201.256z
			 M216.097,305.542L180.862,335.7v-97.648l35.235,30.151V305.542z M413.58,107.551c3.221-3.221,7.581-4.926,12.264-4.867
			c4.828,0.086,9.419,2.064,12.927,5.572l30.16,30.16c7.139,7.139,7.456,18.44,0.706,25.19l-2.111,2.111l-56.056-56.056
			L413.58,107.551z M488.234,229.588l-81.644,81.645c-3.724,3.725-9.783,3.725-13.506,0l-10.855-10.855
			c-3.05-3.049-7.51-3.822-11.279-2.331l-133.885,0.71v-25.79l77.212-16.179c0.374-0.079,0.738-0.178,1.093-0.294
			c1.942-0.398,3.793-1.345,5.3-2.851c4.094-4.094,4.094-10.732,0-14.827l-29.842-29.842l49.519-49.519
			c4.094-4.094,4.094-10.732,0-14.827c-4.094-4.093-10.732-4.093-14.826,0l-49.519,49.519l-10.045-10.044
			c-3.724-3.724-3.724-9.784,0-13.507l81.644-81.645c3.724-3.726,9.783-3.724,13.506,0l28.114,28.114
			c0.003,0.003,0.005,0.006,0.008,0.009c0.003,0.003,0.006,0.005,0.009,0.008l70.867,70.867c0.002,0.002,0.004,0.004,0.006,0.006
			c0.002,0.002,0.004,0.004,0.006,0.006l28.117,28.118c1.804,1.804,2.797,4.202,2.797,6.753
			C491.034,225.384,490.039,227.784,488.234,229.588z"/>
	</g>
</g>
<g>
	<g>
		<path d="M367.935,117.039c-4.094-4.096-10.732-4.095-14.826,0.001l-4.815,4.816c-4.094,4.094-4.094,10.731,0,14.826
			c2.047,2.047,4.73,3.071,7.413,3.071c2.683,0,5.367-1.024,7.413-3.072l4.815-4.816
			C372.029,127.771,372.029,121.134,367.935,117.039z"/>
	</g>
</g>
<g>
	<g>
		<path d="M118.707,417.886c-5.79,0-10.484,4.695-10.484,10.484v5.821c0,5.789,4.694,10.484,10.484,10.484
			s10.484-4.695,10.484-10.484v-5.821C129.191,422.58,124.497,417.886,118.707,417.886z"/>
	</g>
</g>
<g>
	<g>
		<path d="M10.484,420.011C4.694,420.011,0,424.706,0,430.495v5.82c0,5.789,4.694,10.484,10.484,10.484
			c5.79,0,10.484-4.695,10.484-10.484v-5.82C20.968,424.705,16.274,420.011,10.484,420.011z"/>
	</g>
</g>
<g>
	<g>
		<path d="M64.596,411.512c-5.79,0-10.484,4.695-10.484,10.484v9.007c0,5.789,4.694,10.484,10.484,10.484
			c5.79,0,10.484-4.695,10.484-10.484v-9.007C75.08,416.207,70.386,411.512,64.596,411.512z"/>
	</g>
</g>
<g>
</g>
<g>
</g>
<g>
</g>
<g>
</g>
<g>
</g>
<g>
</g>
<g>
</g>
<g>
</g>
<g>
</g>
<g>
</g>
<g>
</g>
<g>
</g>
<g>
</g>
<g>
</g>
<g>
</g>
</svg>
