<?xml version="1.0" encoding="iso-8859-1"?>
<!-- Generator: Adobe Illustrator 19.0.0, SVG Export Plug-In . SVG Version: 6.00 Build 0)  -->
<svg version="1.1" id="Layer_1" xmlns="http://www.w3.org/2000/svg" xmlns:xlink="http://www.w3.org/1999/xlink" x="0px" y="0px"
	 viewBox="0 0 512 512" style="enable-background:new 0 0 512 512;" xml:space="preserve">
<g>
	<g>
		<path d="M256,133.565c-67.51,0-122.435,54.924-122.435,122.435S188.49,378.435,256,378.435S378.435,323.511,378.435,256
			S323.511,133.565,256,133.565z M256,356.174c-55.236,0-100.174-44.938-100.174-100.174S200.764,155.826,256,155.826
			S356.174,200.764,356.174,256S311.236,356.174,256,356.174z"/>
	</g>
</g>
<g>
	<g>
		<path d="M333.89,254.058c-0.151-6.145-5.25-11.004-11.4-10.854c-6.145,0.15-11.005,5.255-10.854,11.4
			c0.011,0.464,0.018,0.929,0.018,1.396c0,6.147,4.983,11.13,11.13,11.13s11.13-4.983,11.13-11.13
			C333.913,255.351,333.905,254.703,333.89,254.058z"/>
	</g>
</g>
<g>
	<g>
		<path d="M319.281,210.538c-14.621-20.32-38.278-32.451-63.281-32.451c-6.147,0-11.13,4.983-11.13,11.13s4.983,11.13,11.13,11.13
			c17.861,0,34.763,8.669,45.211,23.191c2.175,3.023,5.584,4.631,9.043,4.631c2.252,0,4.525-0.681,6.491-2.097
			C321.736,222.483,322.871,215.528,319.281,210.538z"/>
	</g>
</g>
<g>
	<g>
		<path d="M256,410.365c-6.147,0-11.13,4.983-11.13,11.13v79.374c0,6.147,4.983,11.13,11.13,11.13s11.13-4.983,11.13-11.13v-79.374
			C267.13,415.348,262.147,410.365,256,410.365z"/>
	</g>
</g>
<g>
	<g>
		<path d="M256,0c-6.147,0-11.13,4.983-11.13,11.13v79.375c0,6.146,4.983,11.13,11.13,11.13s11.13-4.983,11.13-11.13V11.13
			C267.13,4.983,262.147,0,256,0z"/>
	</g>
</g>
<g>
	<g>
		<path d="M428.781,413.042l-47.765-47.766c-4.346-4.346-11.394-4.346-15.742,0c-4.346,4.346-4.346,11.394,0,15.742l47.766,47.766
			c2.174,2.174,5.022,3.26,7.87,3.26s5.698-1.086,7.87-3.26C433.128,424.437,433.128,417.389,428.781,413.042z"/>
	</g>
</g>
<g>
	<g>
		<path d="M146.845,131.104L98.958,83.218c-4.346-4.346-11.394-4.346-15.742,0c-4.346,4.346-4.346,11.394,0,15.742l47.888,47.886
			c2.174,2.174,5.022,3.26,7.87,3.26s5.698-1.086,7.87-3.26C151.191,142.5,151.191,135.452,146.845,131.104z"/>
	</g>
</g>
<g>
	<g>
		<path d="M500.87,244.87h-79.374c-6.147,0-11.13,4.983-11.13,11.13s4.983,11.13,11.13,11.13h79.374
			c6.147,0,11.13-4.983,11.13-11.13S507.017,244.87,500.87,244.87z"/>
	</g>
</g>
<g>
	<g>
		<path d="M90.505,244.87H11.13C4.983,244.87,0,249.853,0,256s4.983,11.13,11.13,11.13h79.375c6.147,0,11.13-4.983,11.13-11.13
			S96.652,244.87,90.505,244.87z"/>
	</g>
</g>
<g>
	<g>
		<path d="M428.782,83.217c-4.346-4.346-11.394-4.346-15.742,0l-47.889,47.889c-4.346,4.346-4.346,11.394,0,15.742
			c2.174,2.174,5.023,3.26,7.871,3.26s5.698-1.086,7.87-3.26l47.889-47.889C433.129,94.612,433.129,87.564,428.782,83.217z"/>
	</g>
</g>
<g>
	<g>
		<path d="M146.847,365.152c-4.346-4.346-11.394-4.346-15.741,0L83.218,413.04c-4.346,4.346-4.346,11.394,0,15.742
			c2.174,2.174,5.022,3.26,7.87,3.26s5.698-1.086,7.87-3.26l47.889-47.889C151.194,376.547,151.194,369.499,146.847,365.152z"/>
	</g>
</g>
<g>
</g>
<g>
</g>
<g>
</g>
<g>
</g>
<g>
</g>
<g>
</g>
<g>
</g>
<g>
</g>
<g>
</g>
<g>
</g>
<g>
</g>
<g>
</g>
<g>
</g>
<g>
</g>
<g>
</g>
</svg>
