<?xml version="1.0" encoding="utf-8"?>
<!-- Generator: Adobe Illustrator 19.0.0, SVG Export Plug-In . SVG Version: 6.00 Build 0)  -->
<svg version="1.1" id="Layer_1" xmlns="http://www.w3.org/2000/svg" xmlns:xlink="http://www.w3.org/1999/xlink" x="0px" y="0px"
	 viewBox="-117 44 64 64" style="enable-background:new -117 44 64 64;" xml:space="preserve">
<g id="Sun">
	<path d="M-77.6,71.8c-6.2,0-11.1,4.9-11.1,11.1S-83.8,94-77.6,94s11.1-4.9,11.1-11.1S-71.5,71.8-77.6,71.8z M-77.6,92.5
		c-5.2,0-9.5-4.3-9.5-9.5s4.3-9.5,9.5-9.5s9.5,4.3,9.5,9.5S-72.4,92.5-77.6,92.5z"/>
	<path d="M-77.7,67.7c0.5,0,0.8-0.4,0.8-0.8V58c0-0.5-0.4-0.8-0.8-0.8s-0.8,0.4-0.8,0.8v8.9C-78.6,67.5-78.2,67.7-77.7,67.7z"/>
	<path d="M-77.7,97.7c-0.5,0-0.8,0.4-0.8,0.8v8.9c0,0.5,0.4,0.8,0.8,0.8s0.8-0.4,0.8-0.8v-8.9C-77,98.1-77.4,97.7-77.7,97.7z"/>
	<path d="M-53.8,81.6h-8.9c-0.5,0-0.8,0.4-0.8,0.8s0.4,0.8,0.8,0.8h8.9c0.5,0,0.8-0.4,0.8-0.8C-52.9,81.8-53.3,81.6-53.8,81.6z"/>
	<path d="M-92.1,82.3c0-0.5-0.4-0.8-0.8-0.8h-8.9c-0.5,0-0.8,0.4-0.8,0.8s0.4,0.8,0.8,0.8h8.9C-92.5,83.1-92.1,82.8-92.1,82.3z"/>
	<path d="M-67.3,73.2c0.2,0,0.4-0.1,0.6-0.2l6.3-6.3c0.3-0.3,0.3-0.8,0-1.1c-0.3-0.3-0.8-0.3-1.1,0l-6.3,6.3c-0.3,0.3-0.3,0.8,0,1.1
		C-67.7,73.1-67.5,73.2-67.3,73.2z"/>
	<path d="M-66.7,93.2c-0.3-0.3-0.8-0.3-1.1,0c-0.3,0.3-0.3,0.8,0,1.1l6.3,6.3c0.2,0.2,0.4,0.2,0.6,0.2s0.4-0.1,0.6-0.2
		c0.3-0.3,0.3-0.8,0-1.1L-66.7,93.2z"/>
	<path d="M-88.8,72.9c0.2,0.2,0.4,0.2,0.6,0.2s0.4-0.1,0.6-0.2c0.3-0.3,0.3-0.8,0-1.1l-6.3-6.3c-0.3-0.3-0.8-0.3-1.1,0
		c-0.3,0.3-0.3,0.8,0,1.1L-88.8,72.9z"/>
	<path d="M-87.6,93.3C-87.6,93.3-87.6,93.2-87.6,93.3c-0.4-0.4-0.8-0.4-1.1-0.1l-3.2,3.2l-3.2,3.1c-0.3,0.3-0.4,0.8,0,1.1
		c0,0,0,0,0.1,0c0,0,0,0,0,0.1c0.2,0.2,0.4,0.2,0.6,0.2s0.4-0.1,0.6-0.2l3.2-3.2l3.2-3.1C-87.3,94.1-87.3,93.7-87.6,93.3L-87.6,93.3
		z"/>
</g>
</svg>
