<?xml version="1.0" encoding="iso-8859-1"?>
<!-- Generator: Adobe Illustrator 19.0.0, SVG Export Plug-In . SVG Version: 6.00 Build 0)  -->
<svg version="1.1" id="Capa_1" xmlns="http://www.w3.org/2000/svg" xmlns:xlink="http://www.w3.org/1999/xlink" x="0px" y="0px"
	 viewBox="0 0 463 463" style="enable-background:new 0 0 463 463;" xml:space="preserve">
<g>
	<path d="M320.634,128.184c-11.876-36.564-36.17-88.202-84.469-126.557c-2.731-2.17-6.597-2.17-9.328,0
		c-48.299,38.354-72.593,89.992-84.469,126.557c-12.833,39.513-14.303,69.717-14.359,70.983c-0.091,2.045,0.658,4.038,2.073,5.518
		c1.415,1.479,3.373,2.315,5.42,2.315H208v49h-0.5c-8.547,0-15.5,6.953-15.5,15.5v16c0,5.827,3.235,10.908,8,13.555V431.5
		c0,17.369,14.131,31.5,31.5,31.5S263,448.87,263,431.5V301.055c4.765-2.647,8-7.728,8-13.555v-16c0-8.547-6.953-15.5-15.5-15.5H255
		v-49h72.5c2.047,0,4.005-0.837,5.42-2.315c1.415-1.479,2.164-3.473,2.073-5.518C334.937,197.901,333.467,167.697,320.634,128.184z
		 M231.5,448c-9.098,0-16.5-7.402-16.5-16.5V303h33v128.5C248,440.598,240.598,448,231.5,448z M256,271.5v16
		c0,0.275-0.224,0.5-0.5,0.5h-48c-0.276,0-0.5-0.225-0.5-0.5v-16c0-0.275,0.224-0.5,0.5-0.5h48C255.776,271,256,271.225,256,271.5z
		 M223,256V151.5c0-4.687,3.813-8.5,8.5-8.5s8.5,3.813,8.5,8.5V256H223z M255,192v-40.5c0-12.958-10.542-23.5-23.5-23.5
		S208,138.542,208,151.5V192h-64.32c1.235-11.23,4.554-33.454,13.096-59.619c10.857-33.259,32.568-79.704,74.725-115.193
		c42.156,35.489,63.868,81.935,74.725,115.193c8.542,26.165,11.861,48.391,13.096,59.619H255z"/>
	<path d="M231.5,416c-4.142,0-7.5,3.357-7.5,7.5v8c0,4.143,3.358,7.5,7.5,7.5s7.5-3.357,7.5-7.5v-8
		C239,419.358,235.642,416,231.5,416z"/>
</g>
<g>
</g>
<g>
</g>
<g>
</g>
<g>
</g>
<g>
</g>
<g>
</g>
<g>
</g>
<g>
</g>
<g>
</g>
<g>
</g>
<g>
</g>
<g>
</g>
<g>
</g>
<g>
</g>
<g>
</g>
</svg>
