<?xml version="1.0" encoding="utf-8"?>
<!-- Generator: Adobe Illustrator 19.1.0, SVG Export Plug-In . SVG Version: 6.00 Build 0)  -->
<svg version="1.1" id="Layer_1" xmlns="http://www.w3.org/2000/svg" xmlns:xlink="http://www.w3.org/1999/xlink" x="0px" y="0px"
	 viewBox="0 0 64 64" enable-background="new 0 0 64 64" xml:space="preserve">
<g id="Thermometer_2_">
	<path d="M38.0615005,43.4501991V1c0-0.5527-0.4471893-1-1-1H26.9384995c-0.5527992,0-1,0.4473-1,1v42.4501991
		c-3.1796989,2.0009995-5.0605984,5.4804993-5.0605984,9.4277992C20.8779011,59.0107994,25.8672009,64,32,64
		s11.1221008-4.9892006,11.1221008-11.1220016C43.1221008,48.9306984,41.2411995,45.4511986,38.0615005,43.4501991z M32,62
		c-5.0303001,0-9.1220989-4.0918007-9.1220989-9.1220016c0-3.4179993,1.6991997-6.4023972,4.5458984-7.9833984
		c0.3174-0.1758003,0.5146999-0.5107994,0.5146999-0.8740997V2h8.1230011v8.1283998
		c-0.0110016-0.0003996-0.0200996-0.0063-0.031189-0.0063h-3c-0.5528107,0-1,0.4473-1,1s0.4471893,1,1,1h3
		c0.0110893,0,0.0201874-0.0058994,0.031189-0.0063v3.0136003c-0.0110016-0.0004005-0.0200996-0.0063-0.031189-0.0063h-3
		c-0.5528107,0-1,0.4471998-1,1c0,0.5527,0.4471893,1,1,1h3c0.0110893,0,0.0201874-0.0058994,0.031189-0.0063v26.9036999
		c0,0.3633003,0.1973,0.6982994,0.514698,0.8740997c2.8467026,1.5810013,4.5459023,4.5653992,4.5459023,7.9833984
		C41.1221008,57.9081993,37.0303116,62,32,62z"/>
	<path d="M33,46.9061012V25.0410004c0-0.5527-0.4473-1-1-1c-0.5526886,0-1,0.4473-1,1v21.8651009
		c-2.8673992,0.4788971-5.0615005,2.9703979-5.0615005,5.9718971c0,3.342701,2.7187004,6.0615005,6.0615005,6.0615005
		s6.0615005-2.7187996,6.0615005-6.0615005C38.0615005,49.8764992,35.8674011,47.3849983,33,46.9061012z M32,56.9394989
		c-2.2392998,0-4.0615005-1.8223-4.0615005-4.0615005c0-2.2392998,1.8222008-4.0615997,4.0615005-4.0615997
		c2.2393112,0,4.0615005,1.8223,4.0615005,4.0615997C36.0615005,55.1171989,34.2393112,56.9394989,32,56.9394989z"/>
</g>
<g>
</g>
<g>
</g>
<g>
</g>
<g>
</g>
<g>
</g>
<g>
</g>
<g>
</g>
<g>
</g>
<g>
</g>
<g>
</g>
<g>
</g>
<g>
</g>
<g>
</g>
<g>
</g>
<g>
</g>
</svg>
