<?xml version="1.0" encoding="utf-8"?>
<!-- Generator: Adobe Illustrator 19.0.0, SVG Export Plug-In . SVG Version: 6.00 Build 0)  -->
<svg version="1.1" id="Layer_1" xmlns="http://www.w3.org/2000/svg" xmlns:xlink="http://www.w3.org/1999/xlink" x="0px" y="0px"
	 viewBox="106 -181 512 512" style="enable-background:new 106 -181 512 512;" xml:space="preserve">
<style type="text/css">
	.st0{fill:#FC8A5E;}
	.st1{fill:#EA7653;}
	.st2{fill:#AD653D;}
</style>
<polygon class="st0" points="482.9,151.8 480.1,176.9 463.1,331 286.2,331 269.2,176.9 266.4,151.8 "/>
<g>
	<polygon class="st1" points="266.4,151.8 286.2,331 329.2,331 315.4,151.8 	"/>
	<polygon class="st1" points="482.9,151.8 480.1,176.9 269.2,176.9 266.4,151.8 	"/>
</g>
<path class="st2" d="M382,95.7c0,0-0.1,0-0.1,0c-5.8,0.7-11.9,0.4-17.6,0c0,0.3,0,0.5,0,0.6c0.3,4.8,4.2,8.5,8.9,8.5h0.1
	c4.8-0.1,8.7-3.9,8.8-8.8c0,0,0-0.1,0-0.3C382.2,95.6,382.1,95.7,382,95.7z"/>
<path class="st0" d="M381.6,95.7c-5.4,0.6-11.1,0.4-16.5,0h-114V153h247.1V95.7H381.6z"/>
<rect x="251.1" y="95.7" class="st1" width="40.9" height="57.3"/>
</svg>
