<?xml version="1.0" encoding="iso-8859-1"?>
<!-- Generator: Adobe Illustrator 19.0.0, SVG Export Plug-In . SVG Version: 6.00 Build 0)  -->
<svg version="1.1" id="Layer_1" xmlns="http://www.w3.org/2000/svg" xmlns:xlink="http://www.w3.org/1999/xlink" x="0px" y="0px"
	 viewBox="0 0 512 512" style="enable-background:new 0 0 512 512;" xml:space="preserve">
<g>
	<g>
		<g>
			<path d="M128.091,136.498c-8.471,20.638-13.547,43.124-13.547,67.99c0,92.295,93.1,162.201,123.005,182.273V245.957
				L128.091,136.498z"/>
			<path d="M256,398.211l-9.492-5.695c-0.766-0.46-3.995-2.423-8.958-5.754v26.835V512h36.901v-98.404v-26.835
				c-4.963,3.331-8.191,5.294-8.958,5.754L256,398.211z"/>
			<path d="M383.909,136.498L274.451,245.957v140.805c29.904-20.072,123.005-89.978,123.005-182.273
				C397.456,179.621,392.38,157.136,383.909,136.498z"/>
		</g>
	</g>
</g>
<g>
	<g>
		<path d="M287.556,12.844C283.228,8.621,278.801,4.298,274.451,0v193.771l91.538-91.538
			C344.501,68.43,315.05,39.681,287.556,12.844z"/>
	</g>
</g>
<g>
	<g>
		<g>
			<path d="M224.444,12.844c-27.495,26.837-56.945,55.586-78.433,89.389l91.538,91.538V0
				C233.199,4.298,228.772,8.621,224.444,12.844z"/>
			<polygon points="237.549,0 237.549,0 237.549,0 			"/>
		</g>
	</g>
</g>
<g>
</g>
<g>
</g>
<g>
</g>
<g>
</g>
<g>
</g>
<g>
</g>
<g>
</g>
<g>
</g>
<g>
</g>
<g>
</g>
<g>
</g>
<g>
</g>
<g>
</g>
<g>
</g>
<g>
</g>
</svg>
